<?xml version="1.0" encoding="UTF-8" standalone="no"?>
<!DOCTYPE svg PUBLIC "-//W3C//DTD SVG 1.1//EN"
 "http://www.w3.org/Graphics/SVG/1.1/DTD/svg11.dtd">
<!-- Generated by graphviz version 2.43.0 (0)
 -->
<!-- Title: sourcetree Pages: 1 -->
<svg width="734pt" height="188pt"
 viewBox="0.00 0.00 734.00 188.00" xmlns="http://www.w3.org/2000/svg" xmlns:xlink="http://www.w3.org/1999/xlink">
<g id="graph0" class="graph" transform="scale(1 1) rotate(0) translate(4 184)">
<title>sourcetree</title>
<polygon fill="white" stroke="transparent" points="-4,4 -4,-184 730,-184 730,4 -4,4"/>
<!-- MulleObjCOSFoundation -->
<g id="node1" class="node">
<title>MulleObjCOSFoundation</title>
<polygon fill="yellow" stroke="black" points="429,-180 235,-180 235,-144 429,-144 429,-180"/>
<text text-anchor="middle" x="332" y="-158.3" font-family="Times,serif" font-size="14.00">MulleObjCOSFoundation</text>
</g>
<!-- BSD -->
<g id="node2" class="node">
<title>BSD</title>
<g id="a_node2"><a xlink:href="https://unknown.com" xlink:title="BSD">
<polygon fill="lightgrey" stroke="black" points="54,-108 0,-108 0,-72 54,-72 54,-108"/>
<text text-anchor="middle" x="27" y="-86.3" font-family="Times,serif" font-size="14.00">BSD</text>
</a>
</g>
</g>
<!-- MulleObjCOSFoundation&#45;&gt;BSD -->
<g id="edge4" class="edge">
<title>MulleObjCOSFoundation&#45;&gt;BSD</title>
<path fill="none" stroke="black" d="M234.97,-147.82C185.78,-139.73 125.24,-127.64 64.05,-107.94"/>
<polygon fill="black" stroke="black" points="64.82,-104.51 54.23,-104.71 62.64,-111.16 64.82,-104.51"/>
</g>
<!-- Darwin -->
<g id="node3" class="node">
<title>Darwin</title>
<g id="a_node3"><a xlink:href="https://unknown.com" xlink:title="Darwin">
<polygon fill="lightgrey" stroke="black" points="140,-108 72,-108 72,-72 140,-72 140,-108"/>
<text text-anchor="middle" x="106" y="-86.3" font-family="Times,serif" font-size="14.00">Darwin</text>
</a>
</g>
</g>
<!-- MulleObjCOSFoundation&#45;&gt;Darwin -->
<g id="edge5" class="edge">
<title>MulleObjCOSFoundation&#45;&gt;Darwin</title>
<path fill="none" stroke="black" d="M267.59,-143.95C234.66,-134.86 193.82,-123.01 149.64,-108.08"/>
<polygon fill="black" stroke="black" points="150.75,-104.76 140.16,-104.84 148.49,-111.38 150.75,-104.76"/>
</g>
<!-- FreeBSD -->
<g id="node4" class="node">
<title>FreeBSD</title>
<g id="a_node4"><a xlink:href="https://unknown.com" xlink:title="FreeBSD">
<polygon fill="lightgrey" stroke="black" points="239.5,-108 158.5,-108 158.5,-72 239.5,-72 239.5,-108"/>
<text text-anchor="middle" x="199" y="-86.3" font-family="Times,serif" font-size="14.00">FreeBSD</text>
</a>
</g>
</g>
<!-- MulleObjCOSFoundation&#45;&gt;FreeBSD -->
<g id="edge6" class="edge">
<title>MulleObjCOSFoundation&#45;&gt;FreeBSD</title>
<path fill="none" stroke="black" d="M299.46,-143.88C281.75,-134.55 259.65,-122.92 240.68,-112.94"/>
<polygon fill="black" stroke="black" points="242.14,-109.75 231.66,-108.19 238.88,-115.94 242.14,-109.75"/>
</g>
<!-- Linux -->
<g id="node5" class="node">
<title>Linux</title>
<g id="a_node5"><a xlink:href="https://unknown.com" xlink:title="Linux">
<polygon fill="lightgrey" stroke="black" points="314,-108 258,-108 258,-72 314,-72 314,-108"/>
<text text-anchor="middle" x="286" y="-86.3" font-family="Times,serif" font-size="14.00">Linux</text>
</a>
</g>
</g>
<!-- MulleObjCOSFoundation&#45;&gt;Linux -->
<g id="edge7" class="edge">
<title>MulleObjCOSFoundation&#45;&gt;Linux</title>
<path fill="none" stroke="black" d="M320.63,-143.7C315.28,-135.56 308.8,-125.69 302.89,-116.7"/>
<polygon fill="black" stroke="black" points="305.66,-114.54 297.24,-108.1 299.81,-118.38 305.66,-114.54"/>
</g>
<!-- MulleObjC -->
<g id="node9" class="node">
<title>MulleObjC</title>
<g id="a_node9"><a xlink:href="https://github.com/mulle-objc/MulleObjC" xlink:title="MulleObjC">
<polygon fill="lightgrey" stroke="black" points="424,-108 332,-108 332,-72 424,-72 424,-108"/>
<text text-anchor="middle" x="378" y="-86.3" font-family="Times,serif" font-size="14.00">MulleObjC</text>
</a>
</g>
</g>
<!-- MulleObjCOSFoundation&#45;&gt;MulleObjC -->
<g id="edge8" class="edge">
<title>MulleObjCOSFoundation&#45;&gt;MulleObjC</title>
<path fill="none" stroke="black" d="M343.37,-143.7C348.72,-135.56 355.2,-125.69 361.11,-116.7"/>
<polygon fill="black" stroke="black" points="364.19,-118.38 366.76,-108.1 358.34,-114.54 364.19,-118.38"/>
</g>
<!-- OSBase -->
<g id="node11" class="node">
<title>OSBase</title>
<g id="a_node11"><a xlink:href="https://unknown.com" xlink:title="OSBase">
<polygon fill="lightgrey" stroke="black" points="514,-108 442,-108 442,-72 514,-72 514,-108"/>
<text text-anchor="middle" x="478" y="-86.3" font-family="Times,serif" font-size="14.00">OSBase</text>
</a>
</g>
</g>
<!-- MulleObjCOSFoundation&#45;&gt;OSBase -->
<g id="edge9" class="edge">
<title>MulleObjCOSFoundation&#45;&gt;OSBase</title>
<path fill="none" stroke="black" d="M367.72,-143.88C387.5,-134.39 412.27,-122.51 433.33,-112.42"/>
<polygon fill="black" stroke="black" points="434.9,-115.55 442.4,-108.07 431.87,-109.24 434.9,-115.55"/>
</g>
<!-- Posix -->
<g id="node12" class="node">
<title>Posix</title>
<g id="a_node12"><a xlink:href="https://unknown.com" xlink:title="Posix">
<polygon fill="lightgrey" stroke="black" points="586,-108 532,-108 532,-72 586,-72 586,-108"/>
<text text-anchor="middle" x="559" y="-86.3" font-family="Times,serif" font-size="14.00">Posix</text>
</a>
</g>
</g>
<!-- MulleObjCOSFoundation&#45;&gt;Posix -->
<g id="edge10" class="edge">
<title>MulleObjCOSFoundation&#45;&gt;Posix</title>
<path fill="none" stroke="black" d="M404.58,-143.97C438.18,-135.36 478.64,-123.96 522.08,-108.06"/>
<polygon fill="black" stroke="black" points="523.54,-111.25 531.69,-104.49 521.1,-104.69 523.54,-111.25"/>
</g>
<!-- Windows -->
<g id="node13" class="node">
<title>Windows</title>
<g id="a_node13"><a xlink:href="https://unknown.com" xlink:title="Windows">
<polygon fill="lightgrey" stroke="black" points="685.5,-108 604.5,-108 604.5,-72 685.5,-72 685.5,-108"/>
<text text-anchor="middle" x="645" y="-86.3" font-family="Times,serif" font-size="14.00">Windows</text>
</a>
</g>
</g>
<!-- MulleObjCOSFoundation&#45;&gt;Windows -->
<g id="edge11" class="edge">
<title>MulleObjCOSFoundation&#45;&gt;Windows</title>
<path fill="none" stroke="black" d="M429.19,-144.51C476.57,-135.73 534.47,-123.91 594.78,-107.88"/>
<polygon fill="black" stroke="black" points="595.73,-111.24 604.48,-105.27 593.91,-104.49 595.73,-111.24"/>
</g>
<!-- MulleFoundationBase -->
<g id="node6" class="node">
<title>MulleFoundationBase</title>
<g id="a_node6"><a xlink:href="https://github.com/MulleFoundation/MulleFoundationBase" xlink:title="MulleFoundationBase">
<polygon fill="lightgrey" stroke="black" points="726,-36 554,-36 554,0 726,0 726,-36"/>
<text text-anchor="middle" x="640" y="-14.3" font-family="Times,serif" font-size="14.00">MulleFoundationBase</text>
</a>
</g>
</g>
<!-- mulle&#45;objc&#45;cc -->
<g id="node7" class="node">
<title>mulle&#45;objc&#45;cc</title>
<g id="a_node7"><a xlink:href="https://github.com/mulle-cc/mulle-objc-cc" xlink:title="mulle&#45;objc&#45;cc">
<polygon fill="lightgrey" stroke="black" points="208,-36 98,-36 98,0 208,0 208,-36"/>
<text text-anchor="middle" x="153" y="-14.3" font-family="Times,serif" font-size="14.00">mulle&#45;objc&#45;cc</text>
</a>
</g>
</g>
<!-- mulle&#45;objc&#45;debug -->
<g id="node8" class="node">
<title>mulle&#45;objc&#45;debug</title>
<g id="a_node8"><a xlink:href="https://github.com/mulle-objc/mulle-objc-debug" xlink:title="mulle&#45;objc&#45;debug">
<polygon fill="lightgrey" stroke="black" points="365.5,-36 226.5,-36 226.5,0 365.5,0 365.5,-36"/>
<text text-anchor="middle" x="296" y="-14.3" font-family="Times,serif" font-size="14.00">mulle&#45;objc&#45;debug</text>
</a>
</g>
</g>
<!-- MulleObjC&#45;&gt;mulle&#45;objc&#45;cc -->
<g id="edge1" class="edge">
<title>MulleObjC&#45;&gt;mulle&#45;objc&#45;cc</title>
<path fill="none" stroke="black" d="M331.92,-74.67C298.88,-64.38 253.92,-50.4 217.34,-39.02"/>
<polygon fill="black" stroke="black" points="218.33,-35.66 207.74,-36.03 216.25,-42.34 218.33,-35.66"/>
</g>
<!-- MulleObjC&#45;&gt;mulle&#45;objc&#45;debug -->
<g id="edge2" class="edge">
<title>MulleObjC&#45;&gt;mulle&#45;objc&#45;debug</title>
<path fill="none" stroke="black" d="M357.73,-71.7C347.5,-62.97 334.94,-52.24 323.82,-42.75"/>
<polygon fill="black" stroke="black" points="325.91,-39.94 316.04,-36.1 321.37,-45.26 325.91,-39.94"/>
</g>
<!-- mulle&#45;objc&#45;runtime -->
<g id="node10" class="node">
<title>mulle&#45;objc&#45;runtime</title>
<g id="a_node10"><a xlink:href="https://github.com/mulle-objc/mulle-objc-runtime" xlink:title="mulle&#45;objc&#45;runtime">
<polygon fill="lightgrey" stroke="black" points="536,-36 384,-36 384,0 536,0 536,-36"/>
<text text-anchor="middle" x="460" y="-14.3" font-family="Times,serif" font-size="14.00">mulle&#45;objc&#45;runtime</text>
</a>
</g>
</g>
<!-- MulleObjC&#45;&gt;mulle&#45;objc&#45;runtime -->
<g id="edge3" class="edge">
<title>MulleObjC&#45;&gt;mulle&#45;objc&#45;runtime</title>
<path fill="none" stroke="black" d="M398.27,-71.7C408.5,-62.97 421.06,-52.24 432.18,-42.75"/>
<polygon fill="black" stroke="black" points="434.63,-45.26 439.96,-36.1 430.09,-39.94 434.63,-45.26"/>
</g>
<!-- OSBase&#45;&gt;MulleFoundationBase -->
<g id="edge12" class="edge">
<title>OSBase&#45;&gt;MulleFoundationBase</title>
<path fill="none" stroke="black" d="M514.36,-73.29C537.1,-63.46 566.68,-50.68 591.43,-39.99"/>
<polygon fill="black" stroke="black" points="592.86,-43.18 600.65,-36 590.08,-36.76 592.86,-43.18"/>
</g>
</g>
</svg>
