<?xml version="1.0" encoding="UTF-8" standalone="no"?>
<!DOCTYPE svg PUBLIC "-//W3C//DTD SVG 1.1//EN"
 "http://www.w3.org/Graphics/SVG/1.1/DTD/svg11.dtd">
<!-- Generated by graphviz version 2.43.0 (0)
 -->
<!-- Title: sourcetree Pages: 1 -->
<svg width="904pt" height="332pt"
 viewBox="0.00 0.00 904.00 332.00" xmlns="http://www.w3.org/2000/svg" xmlns:xlink="http://www.w3.org/1999/xlink">
<g id="graph0" class="graph" transform="scale(1 1) rotate(0) translate(4 328)">
<title>sourcetree</title>
<polygon fill="white" stroke="transparent" points="-4,4 -4,-328 900,-328 900,4 -4,4"/>
<!-- MulleObjCOSFoundation -->
<g id="node1" class="node">
<title>MulleObjCOSFoundation</title>
<polygon fill="yellow" stroke="black" points="513.5,-324 319.5,-324 319.5,-288 513.5,-288 513.5,-324"/>
<text text-anchor="middle" x="416.5" y="-302.3" font-family="Times,serif" font-size="14.00">MulleObjCOSFoundation</text>
</g>
<!-- src/BSD -->
<g id="node4" class="node">
<title>src/BSD</title>
<polygon fill="lightgrey" stroke="black" points="118.5,-252 44.5,-252 44.5,-216 118.5,-216 118.5,-252"/>
<text text-anchor="middle" x="81.5" y="-230.3" font-family="Times,serif" font-size="14.00">src/BSD</text>
</g>
<!-- MulleObjCOSFoundation&#45;&gt;src/BSD -->
<g id="edge2" class="edge">
<title>MulleObjCOSFoundation&#45;&gt;src/BSD</title>
<path fill="none" stroke="black" d="M319.23,-291.45C265.26,-282.92 196.93,-270.45 128.4,-252.01"/>
<polygon fill="black" stroke="black" points="129.3,-248.63 118.73,-249.37 127.45,-255.38 129.3,-248.63"/>
</g>
<!-- src/Darwin -->
<g id="node5" class="node">
<title>src/Darwin</title>
<polygon fill="lightgrey" stroke="black" points="232,-252 137,-252 137,-216 232,-216 232,-252"/>
<text text-anchor="middle" x="184.5" y="-230.3" font-family="Times,serif" font-size="14.00">src/Darwin</text>
</g>
<!-- MulleObjCOSFoundation&#45;&gt;src/Darwin -->
<g id="edge3" class="edge">
<title>MulleObjCOSFoundation&#45;&gt;src/Darwin</title>
<path fill="none" stroke="black" d="M360.04,-287.97C324.24,-277.16 278.06,-263.23 242.06,-252.37"/>
<polygon fill="black" stroke="black" points="242.77,-248.93 232.19,-249.39 240.75,-255.63 242.77,-248.93"/>
</g>
<!-- src/FreeBSD -->
<g id="node6" class="node">
<title>src/FreeBSD</title>
<polygon fill="lightgrey" stroke="black" points="357,-252 250,-252 250,-216 357,-216 357,-252"/>
<text text-anchor="middle" x="303.5" y="-230.3" font-family="Times,serif" font-size="14.00">src/FreeBSD</text>
</g>
<!-- MulleObjCOSFoundation&#45;&gt;src/FreeBSD -->
<g id="edge4" class="edge">
<title>MulleObjCOSFoundation&#45;&gt;src/FreeBSD</title>
<path fill="none" stroke="black" d="M388.86,-287.88C374.08,-278.72 355.71,-267.34 339.8,-257.48"/>
<polygon fill="black" stroke="black" points="341.59,-254.48 331.25,-252.19 337.91,-260.43 341.59,-254.48"/>
</g>
<!-- src/Linux -->
<g id="node7" class="node">
<title>src/Linux</title>
<polygon fill="lightgrey" stroke="black" points="458,-252 375,-252 375,-216 458,-216 458,-252"/>
<text text-anchor="middle" x="416.5" y="-230.3" font-family="Times,serif" font-size="14.00">src/Linux</text>
</g>
<!-- MulleObjCOSFoundation&#45;&gt;src/Linux -->
<g id="edge5" class="edge">
<title>MulleObjCOSFoundation&#45;&gt;src/Linux</title>
<path fill="none" stroke="black" d="M416.5,-287.7C416.5,-279.98 416.5,-270.71 416.5,-262.11"/>
<polygon fill="black" stroke="black" points="420,-262.1 416.5,-252.1 413,-262.1 420,-262.1"/>
</g>
<!-- src/OSBase -->
<g id="node8" class="node">
<title>src/OSBase</title>
<polygon fill="lightgrey" stroke="black" points="574.5,-252 476.5,-252 476.5,-216 574.5,-216 574.5,-252"/>
<text text-anchor="middle" x="525.5" y="-230.3" font-family="Times,serif" font-size="14.00">src/OSBase</text>
</g>
<!-- MulleObjCOSFoundation&#45;&gt;src/OSBase -->
<g id="edge6" class="edge">
<title>MulleObjCOSFoundation&#45;&gt;src/OSBase</title>
<path fill="none" stroke="black" d="M443.16,-287.88C457.28,-278.81 474.81,-267.55 490.06,-257.76"/>
<polygon fill="black" stroke="black" points="492.21,-260.54 498.73,-252.19 488.43,-254.65 492.21,-260.54"/>
</g>
<!-- src/Posix -->
<g id="node9" class="node">
<title>src/Posix</title>
<polygon fill="lightgrey" stroke="black" points="672.5,-252 592.5,-252 592.5,-216 672.5,-216 672.5,-252"/>
<text text-anchor="middle" x="632.5" y="-230.3" font-family="Times,serif" font-size="14.00">src/Posix</text>
</g>
<!-- MulleObjCOSFoundation&#45;&gt;src/Posix -->
<g id="edge7" class="edge">
<title>MulleObjCOSFoundation&#45;&gt;src/Posix</title>
<path fill="none" stroke="black" d="M471.53,-287.94C501.85,-278.45 540.39,-266.23 582.74,-252.21"/>
<polygon fill="black" stroke="black" points="584.03,-255.47 592.42,-249 581.82,-248.83 584.03,-255.47"/>
</g>
<!-- src/Windows -->
<g id="node10" class="node">
<title>src/Windows</title>
<polygon fill="lightgrey" stroke="black" points="798,-252 691,-252 691,-216 798,-216 798,-252"/>
<text text-anchor="middle" x="744.5" y="-230.3" font-family="Times,serif" font-size="14.00">src/Windows</text>
</g>
<!-- MulleObjCOSFoundation&#45;&gt;src/Windows -->
<g id="edge8" class="edge">
<title>MulleObjCOSFoundation&#45;&gt;src/Windows</title>
<path fill="none" stroke="black" d="M509.42,-287.98C557.81,-278.74 618.14,-266.65 680.86,-252.07"/>
<polygon fill="black" stroke="black" points="682.01,-255.4 690.94,-249.71 680.41,-248.58 682.01,-255.4"/>
</g>
<!-- MulleObjCLockFoundation -->
<g id="node2" class="node">
<title>MulleObjCLockFoundation</title>
<polygon fill="lightgrey" stroke="black" points="244.5,-180 38.5,-180 38.5,-144 244.5,-144 244.5,-180"/>
<text text-anchor="middle" x="141.5" y="-158.3" font-family="Times,serif" font-size="14.00">MulleObjCLockFoundation</text>
</g>
<!-- mulle&#45;time -->
<g id="node3" class="node">
<title>mulle&#45;time</title>
<polygon fill="lightgrey" stroke="black" points="93,-108 0,-108 0,-72 93,-72 93,-108"/>
<text text-anchor="middle" x="46.5" y="-86.3" font-family="Times,serif" font-size="14.00">mulle&#45;time</text>
</g>
<!-- MulleObjCLockFoundation&#45;&gt;mulle&#45;time -->
<g id="edge1" class="edge">
<title>MulleObjCLockFoundation&#45;&gt;mulle&#45;time</title>
<path fill="none" stroke="black" d="M118.02,-143.7C105.94,-134.8 91.05,-123.82 77.98,-114.2"/>
<polygon fill="black" stroke="black" points="79.84,-111.22 69.71,-108.1 75.69,-116.85 79.84,-111.22"/>
</g>
<!-- src/OSBase&#45;&gt;MulleObjCLockFoundation -->
<g id="edge14" class="edge">
<title>src/OSBase&#45;&gt;MulleObjCLockFoundation</title>
<path fill="none" stroke="black" d="M476.25,-218.11C473.3,-217.36 470.37,-216.65 467.5,-216 397.3,-200.07 317.56,-187.02 254.51,-177.85"/>
<polygon fill="black" stroke="black" points="254.94,-174.38 244.54,-176.42 253.94,-181.31 254.94,-174.38"/>
</g>
<!-- MulleObjCStandardFoundation -->
<g id="node11" class="node">
<title>MulleObjCStandardFoundation</title>
<polygon fill="lightgrey" stroke="black" points="550,-180 311,-180 311,-144 550,-144 550,-180"/>
<text text-anchor="middle" x="430.5" y="-158.3" font-family="Times,serif" font-size="14.00">MulleObjCStandardFoundation</text>
</g>
<!-- src/OSBase&#45;&gt;MulleObjCStandardFoundation -->
<g id="edge16" class="edge">
<title>src/OSBase&#45;&gt;MulleObjCStandardFoundation</title>
<path fill="none" stroke="black" d="M502.02,-215.7C489.94,-206.8 475.05,-195.82 461.98,-186.2"/>
<polygon fill="black" stroke="black" points="463.84,-183.22 453.71,-180.1 459.69,-188.85 463.84,-183.22"/>
</g>
<!-- mulle&#45;mmap -->
<g id="node16" class="node">
<title>mulle&#45;mmap</title>
<polygon fill="lightgrey" stroke="black" points="673,-180 568,-180 568,-144 673,-144 673,-180"/>
<text text-anchor="middle" x="620.5" y="-158.3" font-family="Times,serif" font-size="14.00">mulle&#45;mmap</text>
</g>
<!-- src/OSBase&#45;&gt;mulle&#45;mmap -->
<g id="edge13" class="edge">
<title>src/OSBase&#45;&gt;mulle&#45;mmap</title>
<path fill="none" stroke="black" d="M548.98,-215.7C561.06,-206.8 575.95,-195.82 589.02,-186.2"/>
<polygon fill="black" stroke="black" points="591.31,-188.85 597.29,-180.1 587.16,-183.22 591.31,-188.85"/>
</g>
<!-- MulleObjCPlistFoundation -->
<g id="node17" class="node">
<title>MulleObjCPlistFoundation</title>
<polygon fill="lightgrey" stroke="black" points="896,-180 691,-180 691,-144 896,-144 896,-180"/>
<text text-anchor="middle" x="793.5" y="-158.3" font-family="Times,serif" font-size="14.00">MulleObjCPlistFoundation</text>
</g>
<!-- src/OSBase&#45;&gt;MulleObjCPlistFoundation -->
<g id="edge15" class="edge">
<title>src/OSBase&#45;&gt;MulleObjCPlistFoundation</title>
<path fill="none" stroke="black" d="M574.51,-218.49C577.55,-217.64 580.56,-216.8 583.5,-216 626.31,-204.33 674.27,-192.16 713.54,-182.42"/>
<polygon fill="black" stroke="black" points="714.46,-185.8 723.33,-180.01 712.78,-179.01 714.46,-185.8"/>
</g>
<!-- MulleObjCContainerFoundation -->
<g id="node12" class="node">
<title>MulleObjCContainerFoundation</title>
<polygon fill="lightgrey" stroke="black" points="354,-108 111,-108 111,-72 354,-72 354,-108"/>
<text text-anchor="middle" x="232.5" y="-86.3" font-family="Times,serif" font-size="14.00">MulleObjCContainerFoundation</text>
</g>
<!-- MulleObjCStandardFoundation&#45;&gt;MulleObjCContainerFoundation -->
<g id="edge9" class="edge">
<title>MulleObjCStandardFoundation&#45;&gt;MulleObjCContainerFoundation</title>
<path fill="none" stroke="black" d="M382.32,-143.97C354.65,-134.19 319.72,-121.84 290.55,-111.52"/>
<polygon fill="black" stroke="black" points="291.49,-108.14 280.9,-108.11 289.16,-114.74 291.49,-108.14"/>
</g>
<!-- MulleObjCValueFoundation -->
<g id="node13" class="node">
<title>MulleObjCValueFoundation</title>
<polygon fill="lightgrey" stroke="black" points="584.5,-108 372.5,-108 372.5,-72 584.5,-72 584.5,-108"/>
<text text-anchor="middle" x="478.5" y="-86.3" font-family="Times,serif" font-size="14.00">MulleObjCValueFoundation</text>
</g>
<!-- MulleObjCStandardFoundation&#45;&gt;MulleObjCValueFoundation -->
<g id="edge10" class="edge">
<title>MulleObjCStandardFoundation&#45;&gt;MulleObjCValueFoundation</title>
<path fill="none" stroke="black" d="M442.37,-143.7C448,-135.47 454.85,-125.48 461.07,-116.42"/>
<polygon fill="black" stroke="black" points="464,-118.33 466.77,-108.1 458.23,-114.37 464,-118.33"/>
</g>
<!-- mulle&#45;unicode -->
<g id="node14" class="node">
<title>mulle&#45;unicode</title>
<polygon fill="lightgrey" stroke="black" points="718.5,-108 602.5,-108 602.5,-72 718.5,-72 718.5,-108"/>
<text text-anchor="middle" x="660.5" y="-86.3" font-family="Times,serif" font-size="14.00">mulle&#45;unicode</text>
</g>
<!-- MulleObjCStandardFoundation&#45;&gt;mulle&#45;unicode -->
<g id="edge11" class="edge">
<title>MulleObjCStandardFoundation&#45;&gt;mulle&#45;unicode</title>
<path fill="none" stroke="black" d="M486.47,-143.97C519.03,-134.06 560.24,-121.51 594.39,-111.12"/>
<polygon fill="black" stroke="black" points="595.73,-114.37 604.28,-108.11 593.69,-107.67 595.73,-114.37"/>
</g>
<!-- MulleObjC -->
<g id="node15" class="node">
<title>MulleObjC</title>
<polygon fill="lightgrey" stroke="black" points="524.5,-36 432.5,-36 432.5,0 524.5,0 524.5,-36"/>
<text text-anchor="middle" x="478.5" y="-14.3" font-family="Times,serif" font-size="14.00">MulleObjC</text>
</g>
<!-- MulleObjCValueFoundation&#45;&gt;MulleObjC -->
<g id="edge12" class="edge">
<title>MulleObjCValueFoundation&#45;&gt;MulleObjC</title>
<path fill="none" stroke="black" d="M478.5,-71.7C478.5,-63.98 478.5,-54.71 478.5,-46.11"/>
<polygon fill="black" stroke="black" points="482,-46.1 478.5,-36.1 475,-46.1 482,-46.1"/>
</g>
</g>
</svg>
