<?xml version="1.0" encoding="UTF-8" standalone="no"?>
<!DOCTYPE svg PUBLIC "-//W3C//DTD SVG 1.1//EN"
 "http://www.w3.org/Graphics/SVG/1.1/DTD/svg11.dtd">
<!-- Generated by graphviz version 2.43.0 (0)
 -->
<!-- Title: sourcetree Pages: 1 -->
<svg width="3090pt" height="260pt"
 viewBox="0.00 0.00 3090.00 260.00" xmlns="http://www.w3.org/2000/svg" xmlns:xlink="http://www.w3.org/1999/xlink">
<g id="graph0" class="graph" transform="scale(1 1) rotate(0) translate(4 256)">
<title>sourcetree</title>
<polygon fill="white" stroke="transparent" points="-4,4 -4,-256 3086,-256 3086,4 -4,4"/>
<!-- MulleObjCOSFoundation -->
<g id="node1" class="node">
<title>MulleObjCOSFoundation</title>
<polygon fill="yellow" stroke="black" points="1254,-252 1060,-252 1060,-216 1254,-216 1254,-252"/>
<text text-anchor="middle" x="1157" y="-230.3" font-family="Times,serif" font-size="14.00">MulleObjCOSFoundation</text>
</g>
<!-- BSD -->
<g id="node2" class="node">
<title>BSD</title>
<g id="a_node2"><a xlink:href="https://unknown.com/" xlink:title="BSD">
<polygon fill="lightgrey" stroke="black" points="925,-180 871,-180 871,-144 925,-144 925,-180"/>
<text text-anchor="middle" x="898" y="-158.3" font-family="Times,serif" font-size="14.00">BSD</text>
</a>
</g>
</g>
<!-- MulleObjCOSFoundation&#45;&gt;BSD -->
<g id="edge17" class="edge">
<title>MulleObjCOSFoundation&#45;&gt;BSD</title>
<path fill="none" stroke="black" d="M1066.52,-215.97C1028.06,-207.66 982.78,-196.48 934.88,-179.97"/>
<polygon fill="black" stroke="black" points="935.87,-176.61 925.27,-176.6 933.55,-183.21 935.87,-176.61"/>
</g>
<!-- Darwin -->
<g id="node3" class="node">
<title>Darwin</title>
<g id="a_node3"><a xlink:href="https://unknown.com/" xlink:title="Darwin">
<polygon fill="lightgrey" stroke="black" points="1011,-180 943,-180 943,-144 1011,-144 1011,-180"/>
<text text-anchor="middle" x="977" y="-158.3" font-family="Times,serif" font-size="14.00">Darwin</text>
</a>
</g>
</g>
<!-- MulleObjCOSFoundation&#45;&gt;Darwin -->
<g id="edge18" class="edge">
<title>MulleObjCOSFoundation&#45;&gt;Darwin</title>
<path fill="none" stroke="black" d="M1112.54,-215.9C1087.92,-206.4 1056.54,-194.27 1020.91,-180.34"/>
<polygon fill="black" stroke="black" points="1021.85,-176.95 1011.26,-176.57 1019.3,-183.47 1021.85,-176.95"/>
</g>
<!-- FreeBSD -->
<g id="node4" class="node">
<title>FreeBSD</title>
<g id="a_node4"><a xlink:href="https://unknown.com/" xlink:title="FreeBSD">
<polygon fill="lightgrey" stroke="black" points="1110.5,-180 1029.5,-180 1029.5,-144 1110.5,-144 1110.5,-180"/>
<text text-anchor="middle" x="1070" y="-158.3" font-family="Times,serif" font-size="14.00">FreeBSD</text>
</a>
</g>
</g>
<!-- MulleObjCOSFoundation&#45;&gt;FreeBSD -->
<g id="edge19" class="edge">
<title>MulleObjCOSFoundation&#45;&gt;FreeBSD</title>
<path fill="none" stroke="black" d="M1135.49,-215.7C1124.54,-206.88 1111.05,-196.03 1099.18,-186.47"/>
<polygon fill="black" stroke="black" points="1101.24,-183.65 1091.26,-180.1 1096.86,-189.1 1101.24,-183.65"/>
</g>
<!-- Linux -->
<g id="node5" class="node">
<title>Linux</title>
<g id="a_node5"><a xlink:href="https://unknown.com/" xlink:title="Linux">
<polygon fill="lightgrey" stroke="black" points="1185,-180 1129,-180 1129,-144 1185,-144 1185,-180"/>
<text text-anchor="middle" x="1157" y="-158.3" font-family="Times,serif" font-size="14.00">Linux</text>
</a>
</g>
</g>
<!-- MulleObjCOSFoundation&#45;&gt;Linux -->
<g id="edge20" class="edge">
<title>MulleObjCOSFoundation&#45;&gt;Linux</title>
<path fill="none" stroke="black" d="M1157,-215.7C1157,-207.98 1157,-198.71 1157,-190.11"/>
<polygon fill="black" stroke="black" points="1160.5,-190.1 1157,-180.1 1153.5,-190.1 1160.5,-190.1"/>
</g>
<!-- OSBase -->
<g id="node23" class="node">
<title>OSBase</title>
<g id="a_node23"><a xlink:href="https://unknown.com/" xlink:title="OSBase">
<polygon fill="lightgrey" stroke="black" points="1275,-180 1203,-180 1203,-144 1275,-144 1275,-180"/>
<text text-anchor="middle" x="1239" y="-158.3" font-family="Times,serif" font-size="14.00">OSBase</text>
</a>
</g>
</g>
<!-- MulleObjCOSFoundation&#45;&gt;OSBase -->
<g id="edge21" class="edge">
<title>MulleObjCOSFoundation&#45;&gt;OSBase</title>
<path fill="none" stroke="black" d="M1177.27,-215.7C1187.5,-206.97 1200.06,-196.24 1211.18,-186.75"/>
<polygon fill="black" stroke="black" points="1213.63,-189.26 1218.96,-180.1 1209.09,-183.94 1213.63,-189.26"/>
</g>
<!-- Posix -->
<g id="node24" class="node">
<title>Posix</title>
<g id="a_node24"><a xlink:href="https://unknown.com/" xlink:title="Posix">
<polygon fill="lightgrey" stroke="black" points="1347,-180 1293,-180 1293,-144 1347,-144 1347,-180"/>
<text text-anchor="middle" x="1320" y="-158.3" font-family="Times,serif" font-size="14.00">Posix</text>
</a>
</g>
</g>
<!-- MulleObjCOSFoundation&#45;&gt;Posix -->
<g id="edge22" class="edge">
<title>MulleObjCOSFoundation&#45;&gt;Posix</title>
<path fill="none" stroke="black" d="M1199.25,-215.93C1221.93,-206.65 1250.52,-194.73 1283.51,-180.13"/>
<polygon fill="black" stroke="black" points="1285.22,-183.2 1292.93,-175.94 1282.37,-176.81 1285.22,-183.2"/>
</g>
<!-- Windows -->
<g id="node25" class="node">
<title>Windows</title>
<g id="a_node25"><a xlink:href="https://unknown.com/" xlink:title="Windows">
<polygon fill="lightgrey" stroke="black" points="1446.5,-180 1365.5,-180 1365.5,-144 1446.5,-144 1446.5,-180"/>
<text text-anchor="middle" x="1406" y="-158.3" font-family="Times,serif" font-size="14.00">Windows</text>
</a>
</g>
</g>
<!-- MulleObjCOSFoundation&#45;&gt;Windows -->
<g id="edge23" class="edge">
<title>MulleObjCOSFoundation&#45;&gt;Windows</title>
<path fill="none" stroke="black" d="M1225.48,-215.98C1261.6,-206.72 1306.81,-194.67 1355.61,-180.02"/>
<polygon fill="black" stroke="black" points="1356.86,-183.3 1365.41,-177.05 1354.83,-176.6 1356.86,-183.3"/>
</g>
<!-- MulleFoundationBase -->
<g id="node6" class="node">
<title>MulleFoundationBase</title>
<g id="a_node6"><a xlink:href="https://github.com/MulleFoundation/MulleFoundationBase" xlink:title="MulleFoundationBase">
<polygon fill="lightgrey" stroke="black" points="1637,-180 1465,-180 1465,-144 1637,-144 1637,-180"/>
<text text-anchor="middle" x="1551" y="-158.3" font-family="Times,serif" font-size="14.00">MulleFoundationBase</text>
</a>
</g>
</g>
<!-- MulleObjC -->
<g id="node7" class="node">
<title>MulleObjC</title>
<g id="a_node7"><a xlink:href="https://github.com/mulle-objc/MulleObjC" xlink:title="MulleObjC">
<polygon fill="lightgrey" stroke="black" points="244,-108 152,-108 152,-72 244,-72 244,-108"/>
<text text-anchor="middle" x="198" y="-86.3" font-family="Times,serif" font-size="14.00">MulleObjC</text>
</a>
</g>
</g>
<!-- MulleFoundationBase&#45;&gt;MulleObjC -->
<g id="edge1" class="edge">
<title>MulleFoundationBase&#45;&gt;MulleObjC</title>
<path fill="none" stroke="black" d="M1464.87,-145.02C1461.88,-144.64 1458.92,-144.3 1456,-144 1193.23,-116.71 533.2,-151.03 254.46,-107.91"/>
<polygon fill="black" stroke="black" points="254.73,-104.41 244.3,-106.27 253.62,-111.32 254.73,-104.41"/>
</g>
<!-- MulleObjCArchiverFoundation -->
<g id="node8" class="node">
<title>MulleObjCArchiverFoundation</title>
<g id="a_node8"><a xlink:href="https://github.com/MulleFoundation/MulleObjCArchiverFoundation@*" xlink:title="MulleObjCArchiverFoundation">
<polygon fill="lightgrey" stroke="black" points="495.5,-108 262.5,-108 262.5,-72 495.5,-72 495.5,-108"/>
<text text-anchor="middle" x="379" y="-86.3" font-family="Times,serif" font-size="14.00">MulleObjCArchiverFoundation</text>
</a>
</g>
</g>
<!-- MulleFoundationBase&#45;&gt;MulleObjCArchiverFoundation -->
<g id="edge2" class="edge">
<title>MulleFoundationBase&#45;&gt;MulleObjCArchiverFoundation</title>
<path fill="none" stroke="black" d="M1464.86,-145.05C1461.88,-144.67 1458.92,-144.31 1456,-144 1038.32,-98.95 927.56,-143.86 505.75,-108.1"/>
<polygon fill="black" stroke="black" points="505.99,-104.61 495.73,-107.24 505.4,-111.58 505.99,-104.61"/>
</g>
<!-- MulleObjCContainerFoundation -->
<g id="node9" class="node">
<title>MulleObjCContainerFoundation</title>
<g id="a_node9"><a xlink:href="https://github.com/MulleFoundation/MulleObjCContainerFoundation@*" xlink:title="MulleObjCContainerFoundation">
<polygon fill="lightgrey" stroke="black" points="756.5,-108 513.5,-108 513.5,-72 756.5,-72 756.5,-108"/>
<text text-anchor="middle" x="635" y="-86.3" font-family="Times,serif" font-size="14.00">MulleObjCContainerFoundation</text>
</a>
</g>
</g>
<!-- MulleFoundationBase&#45;&gt;MulleObjCContainerFoundation -->
<g id="edge3" class="edge">
<title>MulleFoundationBase&#45;&gt;MulleObjCContainerFoundation</title>
<path fill="none" stroke="black" d="M1464.86,-145.1C1461.87,-144.7 1458.91,-144.34 1456,-144 1153.77,-109.22 1072.98,-135.38 766.81,-108.12"/>
<polygon fill="black" stroke="black" points="767.03,-104.63 756.76,-107.21 766.4,-111.6 767.03,-104.63"/>
</g>
<!-- MulleObjCKVCFoundation -->
<g id="node10" class="node">
<title>MulleObjCKVCFoundation</title>
<g id="a_node10"><a xlink:href="https://github.com/MulleFoundation/MulleObjCKVCFoundation@*" xlink:title="MulleObjCKVCFoundation">
<polygon fill="lightgrey" stroke="black" points="977.5,-108 774.5,-108 774.5,-72 977.5,-72 977.5,-108"/>
<text text-anchor="middle" x="876" y="-86.3" font-family="Times,serif" font-size="14.00">MulleObjCKVCFoundation</text>
</a>
</g>
</g>
<!-- MulleFoundationBase&#45;&gt;MulleObjCKVCFoundation -->
<g id="edge4" class="edge">
<title>MulleFoundationBase&#45;&gt;MulleObjCKVCFoundation</title>
<path fill="none" stroke="black" d="M1464.84,-145.19C1461.86,-144.77 1458.91,-144.37 1456,-144 1251.86,-117.97 1196.42,-131.4 987.64,-108.01"/>
<polygon fill="black" stroke="black" points="987.91,-104.52 977.58,-106.87 987.12,-111.48 987.91,-104.52"/>
</g>
<!-- MulleObjCLockFoundation -->
<g id="node11" class="node">
<title>MulleObjCLockFoundation</title>
<g id="a_node11"><a xlink:href="https://github.com/MulleFoundation/MulleObjCLockFoundation@*" xlink:title="MulleObjCLockFoundation">
<polygon fill="lightgrey" stroke="black" points="1202,-108 996,-108 996,-72 1202,-72 1202,-108"/>
<text text-anchor="middle" x="1099" y="-86.3" font-family="Times,serif" font-size="14.00">MulleObjCLockFoundation</text>
</a>
</g>
</g>
<!-- MulleFoundationBase&#45;&gt;MulleObjCLockFoundation -->
<g id="edge5" class="edge">
<title>MulleFoundationBase&#45;&gt;MulleObjCLockFoundation</title>
<path fill="none" stroke="black" d="M1464.81,-145.46C1461.84,-144.96 1458.89,-144.47 1456,-144 1350.56,-126.82 1321.53,-124.39 1212.25,-108.18"/>
<polygon fill="black" stroke="black" points="1212.54,-104.68 1202.13,-106.67 1211.51,-111.61 1212.54,-104.68"/>
</g>
<!-- MulleObjCMathFoundation -->
<g id="node12" class="node">
<title>MulleObjCMathFoundation</title>
<g id="a_node12"><a xlink:href="https://github.com/MulleFoundation/MulleObjCMathFoundation@*" xlink:title="MulleObjCMathFoundation">
<polygon fill="lightgrey" stroke="black" points="1430,-108 1220,-108 1220,-72 1430,-72 1430,-108"/>
<text text-anchor="middle" x="1325" y="-86.3" font-family="Times,serif" font-size="14.00">MulleObjCMathFoundation</text>
</a>
</g>
</g>
<!-- MulleFoundationBase&#45;&gt;MulleObjCMathFoundation -->
<g id="edge6" class="edge">
<title>MulleFoundationBase&#45;&gt;MulleObjCMathFoundation</title>
<path fill="none" stroke="black" d="M1496,-143.97C1464.01,-134.06 1423.52,-121.51 1389.96,-111.12"/>
<polygon fill="black" stroke="black" points="1390.83,-107.73 1380.24,-108.11 1388.76,-114.41 1390.83,-107.73"/>
</g>
<!-- MulleObjCPlistFoundation -->
<g id="node13" class="node">
<title>MulleObjCPlistFoundation</title>
<g id="a_node13"><a xlink:href="https://github.com/MulleFoundation/MulleObjCPlistFoundation@*" xlink:title="MulleObjCPlistFoundation">
<polygon fill="lightgrey" stroke="black" points="1653.5,-108 1448.5,-108 1448.5,-72 1653.5,-72 1653.5,-108"/>
<text text-anchor="middle" x="1551" y="-86.3" font-family="Times,serif" font-size="14.00">MulleObjCPlistFoundation</text>
</a>
</g>
</g>
<!-- MulleFoundationBase&#45;&gt;MulleObjCPlistFoundation -->
<g id="edge7" class="edge">
<title>MulleFoundationBase&#45;&gt;MulleObjCPlistFoundation</title>
<path fill="none" stroke="black" d="M1551,-143.7C1551,-135.98 1551,-126.71 1551,-118.11"/>
<polygon fill="black" stroke="black" points="1554.5,-118.1 1551,-108.1 1547.5,-118.1 1554.5,-118.1"/>
</g>
<!-- MulleObjCRegexFoundation -->
<g id="node14" class="node">
<title>MulleObjCRegexFoundation</title>
<g id="a_node14"><a xlink:href="https://github.com/MulleFoundation/MulleObjCRegexFoundation" xlink:title="MulleObjCRegexFoundation">
<polygon fill="lightgrey" stroke="black" points="1888.5,-108 1671.5,-108 1671.5,-72 1888.5,-72 1888.5,-108"/>
<text text-anchor="middle" x="1780" y="-86.3" font-family="Times,serif" font-size="14.00">MulleObjCRegexFoundation</text>
</a>
</g>
</g>
<!-- MulleFoundationBase&#45;&gt;MulleObjCRegexFoundation -->
<g id="edge8" class="edge">
<title>MulleFoundationBase&#45;&gt;MulleObjCRegexFoundation</title>
<path fill="none" stroke="black" d="M1606.73,-143.97C1639.14,-134.06 1680.18,-121.51 1714.18,-111.12"/>
<polygon fill="black" stroke="black" points="1715.48,-114.38 1724.02,-108.11 1713.44,-107.69 1715.48,-114.38"/>
</g>
<!-- MulleObjCStandardFoundation -->
<g id="node15" class="node">
<title>MulleObjCStandardFoundation</title>
<g id="a_node15"><a xlink:href="https://github.com/MulleFoundation/MulleObjCStandardFoundation@*" xlink:title="MulleObjCStandardFoundation">
<polygon fill="lightgrey" stroke="black" points="2145.5,-108 1906.5,-108 1906.5,-72 2145.5,-72 2145.5,-108"/>
<text text-anchor="middle" x="2026" y="-86.3" font-family="Times,serif" font-size="14.00">MulleObjCStandardFoundation</text>
</a>
</g>
</g>
<!-- MulleFoundationBase&#45;&gt;MulleObjCStandardFoundation -->
<g id="edge9" class="edge">
<title>MulleFoundationBase&#45;&gt;MulleObjCStandardFoundation</title>
<path fill="none" stroke="black" d="M1637.02,-148.32C1710.49,-137.5 1817.17,-121.78 1900.23,-109.54"/>
<polygon fill="black" stroke="black" points="1900.85,-112.98 1910.23,-108.06 1899.83,-106.06 1900.85,-112.98"/>
</g>
<!-- MulleObjCTimeFoundation -->
<g id="node16" class="node">
<title>MulleObjCTimeFoundation</title>
<g id="a_node16"><a xlink:href="https://github.com/MulleFoundation/MulleObjCTimeFoundation@*" xlink:title="MulleObjCTimeFoundation">
<polygon fill="lightgrey" stroke="black" points="2372,-108 2164,-108 2164,-72 2372,-72 2372,-108"/>
<text text-anchor="middle" x="2268" y="-86.3" font-family="Times,serif" font-size="14.00">MulleObjCTimeFoundation</text>
</a>
</g>
</g>
<!-- MulleFoundationBase&#45;&gt;MulleObjCTimeFoundation -->
<g id="edge10" class="edge">
<title>MulleFoundationBase&#45;&gt;MulleObjCTimeFoundation</title>
<path fill="none" stroke="black" d="M1637.19,-155.12C1752.47,-146.88 1963.45,-130.48 2153.78,-108.1"/>
<polygon fill="black" stroke="black" points="2154.46,-111.55 2163.97,-106.9 2153.63,-104.6 2154.46,-111.55"/>
</g>
<!-- MulleObjCUnicodeFoundation -->
<g id="node17" class="node">
<title>MulleObjCUnicodeFoundation</title>
<g id="a_node17"><a xlink:href="https://github.com/MulleFoundation/MulleObjCUnicodeFoundation@*" xlink:title="MulleObjCUnicodeFoundation">
<polygon fill="lightgrey" stroke="black" points="2621.5,-108 2390.5,-108 2390.5,-72 2621.5,-72 2621.5,-108"/>
<text text-anchor="middle" x="2506" y="-86.3" font-family="Times,serif" font-size="14.00">MulleObjCUnicodeFoundation</text>
</a>
</g>
</g>
<!-- MulleFoundationBase&#45;&gt;MulleObjCUnicodeFoundation -->
<g id="edge11" class="edge">
<title>MulleFoundationBase&#45;&gt;MulleObjCUnicodeFoundation</title>
<path fill="none" stroke="black" d="M1637.2,-157.53C1786.33,-151.07 2102.33,-135.42 2379.98,-108.06"/>
<polygon fill="black" stroke="black" points="2380.65,-111.51 2390.26,-107.04 2379.96,-104.54 2380.65,-111.51"/>
</g>
<!-- MulleObjCUUIDFoundation -->
<g id="node18" class="node">
<title>MulleObjCUUIDFoundation</title>
<g id="a_node18"><a xlink:href="https://github.com/MulleFoundation/MulleObjCUUIDFoundation@*" xlink:title="MulleObjCUUIDFoundation">
<polygon fill="lightgrey" stroke="black" points="2852.5,-108 2639.5,-108 2639.5,-72 2852.5,-72 2852.5,-108"/>
<text text-anchor="middle" x="2746" y="-86.3" font-family="Times,serif" font-size="14.00">MulleObjCUUIDFoundation</text>
</a>
</g>
</g>
<!-- MulleFoundationBase&#45;&gt;MulleObjCUUIDFoundation -->
<g id="edge12" class="edge">
<title>MulleFoundationBase&#45;&gt;MulleObjCUUIDFoundation</title>
<path fill="none" stroke="black" d="M1637.31,-159.63C1819.02,-156.11 2254.52,-144.41 2629,-108.14"/>
<polygon fill="black" stroke="black" points="2629.61,-111.6 2639.23,-107.15 2628.93,-104.63 2629.61,-111.6"/>
</g>
<!-- MulleObjCValueFoundation -->
<g id="node19" class="node">
<title>MulleObjCValueFoundation</title>
<g id="a_node19"><a xlink:href="https://github.com/MulleFoundation/MulleObjCValueFoundation@*" xlink:title="MulleObjCValueFoundation">
<polygon fill="lightgrey" stroke="black" points="3082,-108 2870,-108 2870,-72 3082,-72 3082,-108"/>
<text text-anchor="middle" x="2976" y="-86.3" font-family="Times,serif" font-size="14.00">MulleObjCValueFoundation</text>
</a>
</g>
</g>
<!-- MulleFoundationBase&#45;&gt;MulleObjCValueFoundation -->
<g id="edge13" class="edge">
<title>MulleFoundationBase&#45;&gt;MulleObjCValueFoundation</title>
<path fill="none" stroke="black" d="M1637.11,-160.72C1845.54,-159.35 2393.8,-151.61 2859.89,-108.15"/>
<polygon fill="black" stroke="black" points="2860.22,-111.63 2869.85,-107.21 2859.57,-104.66 2860.22,-111.63"/>
</g>
<!-- mulle&#45;objc&#45;cc -->
<g id="node20" class="node">
<title>mulle&#45;objc&#45;cc</title>
<g id="a_node20"><a xlink:href="https://github.com/mulle-cc/mulle-objc-cc" xlink:title="mulle&#45;objc&#45;cc">
<polygon fill="lightgrey" stroke="black" points="110,-36 0,-36 0,0 110,0 110,-36"/>
<text text-anchor="middle" x="55" y="-14.3" font-family="Times,serif" font-size="14.00">mulle&#45;objc&#45;cc</text>
</a>
</g>
</g>
<!-- MulleObjC&#45;&gt;mulle&#45;objc&#45;cc -->
<g id="edge14" class="edge">
<title>MulleObjC&#45;&gt;mulle&#45;objc&#45;cc</title>
<path fill="none" stroke="black" d="M163.02,-71.88C143.8,-62.47 119.77,-50.71 99.26,-40.67"/>
<polygon fill="black" stroke="black" points="100.64,-37.44 90.12,-36.19 97.56,-43.73 100.64,-37.44"/>
</g>
<!-- mulle&#45;objc&#45;debug -->
<g id="node21" class="node">
<title>mulle&#45;objc&#45;debug</title>
<g id="a_node21"><a xlink:href="https://github.com/mulle-objc/mulle-objc-debug" xlink:title="mulle&#45;objc&#45;debug">
<polygon fill="lightgrey" stroke="black" points="267.5,-36 128.5,-36 128.5,0 267.5,0 267.5,-36"/>
<text text-anchor="middle" x="198" y="-14.3" font-family="Times,serif" font-size="14.00">mulle&#45;objc&#45;debug</text>
</a>
</g>
</g>
<!-- MulleObjC&#45;&gt;mulle&#45;objc&#45;debug -->
<g id="edge15" class="edge">
<title>MulleObjC&#45;&gt;mulle&#45;objc&#45;debug</title>
<path fill="none" stroke="black" d="M198,-71.7C198,-63.98 198,-54.71 198,-46.11"/>
<polygon fill="black" stroke="black" points="201.5,-46.1 198,-36.1 194.5,-46.1 201.5,-46.1"/>
</g>
<!-- mulle&#45;objc&#45;runtime -->
<g id="node22" class="node">
<title>mulle&#45;objc&#45;runtime</title>
<g id="a_node22"><a xlink:href="https://github.com/mulle-objc/mulle-objc-runtime" xlink:title="mulle&#45;objc&#45;runtime">
<polygon fill="lightgrey" stroke="black" points="438,-36 286,-36 286,0 438,0 438,-36"/>
<text text-anchor="middle" x="362" y="-14.3" font-family="Times,serif" font-size="14.00">mulle&#45;objc&#45;runtime</text>
</a>
</g>
</g>
<!-- MulleObjC&#45;&gt;mulle&#45;objc&#45;runtime -->
<g id="edge16" class="edge">
<title>MulleObjC&#45;&gt;mulle&#45;objc&#45;runtime</title>
<path fill="none" stroke="black" d="M238.12,-71.88C260.64,-62.26 288.92,-50.19 312.77,-40.01"/>
<polygon fill="black" stroke="black" points="314.19,-43.21 322.01,-36.07 311.44,-36.77 314.19,-43.21"/>
</g>
<!-- src/OSBase -->
<g id="node26" class="node">
<title>src/OSBase</title>
<polygon fill="lightgrey" stroke="black" points="1600,-252 1502,-252 1502,-216 1600,-216 1600,-252"/>
<text text-anchor="middle" x="1551" y="-230.3" font-family="Times,serif" font-size="14.00">src/OSBase</text>
</g>
<!-- src/OSBase&#45;&gt;MulleFoundationBase -->
<g id="edge24" class="edge">
<title>src/OSBase&#45;&gt;MulleFoundationBase</title>
<path fill="none" stroke="black" d="M1551,-215.7C1551,-207.98 1551,-198.71 1551,-190.11"/>
<polygon fill="black" stroke="black" points="1554.5,-190.1 1551,-180.1 1547.5,-190.1 1554.5,-190.1"/>
</g>
</g>
</svg>
