<?xml version="1.0" encoding="UTF-8" standalone="no"?>
<!DOCTYPE svg PUBLIC "-//W3C//DTD SVG 1.1//EN"
 "http://www.w3.org/Graphics/SVG/1.1/DTD/svg11.dtd">
<!-- Generated by graphviz version 2.43.0 (0)
 -->
<!-- Title: sourcetree Pages: 1 -->
<svg width="860pt" height="332pt"
 viewBox="0.00 0.00 859.50 332.00" xmlns="http://www.w3.org/2000/svg" xmlns:xlink="http://www.w3.org/1999/xlink">
<g id="graph0" class="graph" transform="scale(1 1) rotate(0) translate(4 328)">
<title>sourcetree</title>
<polygon fill="white" stroke="transparent" points="-4,4 -4,-328 855.5,-328 855.5,4 -4,4"/>
<!-- MulleObjCLockFoundation -->
<g id="node1" class="node">
<title>MulleObjCLockFoundation</title>
<polygon fill="lightgrey" stroke="black" points="248,-180 42,-180 42,-144 248,-144 248,-180"/>
<text text-anchor="middle" x="145" y="-158.3" font-family="Times,serif" font-size="14.00">MulleObjCLockFoundation</text>
</g>
<!-- mulle&#45;time -->
<g id="node2" class="node">
<title>mulle&#45;time</title>
<polygon fill="lightgrey" stroke="black" points="191.5,-108 98.5,-108 98.5,-72 191.5,-72 191.5,-108"/>
<text text-anchor="middle" x="145" y="-86.3" font-family="Times,serif" font-size="14.00">mulle&#45;time</text>
</g>
<!-- MulleObjCLockFoundation&#45;&gt;mulle&#45;time -->
<g id="edge1" class="edge">
<title>MulleObjCLockFoundation&#45;&gt;mulle&#45;time</title>
<path fill="none" stroke="black" d="M145,-143.7C145,-135.98 145,-126.71 145,-118.11"/>
<polygon fill="black" stroke="black" points="148.5,-118.1 145,-108.1 141.5,-118.1 148.5,-118.1"/>
</g>
<!-- MulleObjCOSFoundation -->
<g id="node3" class="node">
<title>MulleObjCOSFoundation</title>
<polygon fill="lightgrey" stroke="black" points="469,-324 275,-324 275,-288 469,-288 469,-324"/>
<text text-anchor="middle" x="372" y="-302.3" font-family="Times,serif" font-size="14.00">MulleObjCOSFoundation</text>
</g>
<!-- src/BSD -->
<g id="node4" class="node">
<title>src/BSD</title>
<polygon fill="lightgrey" stroke="black" points="74,-252 0,-252 0,-216 74,-216 74,-252"/>
<text text-anchor="middle" x="37" y="-230.3" font-family="Times,serif" font-size="14.00">src/BSD</text>
</g>
<!-- MulleObjCOSFoundation&#45;&gt;src/BSD -->
<g id="edge2" class="edge">
<title>MulleObjCOSFoundation&#45;&gt;src/BSD</title>
<path fill="none" stroke="black" d="M274.73,-291.45C220.76,-282.92 152.43,-270.45 83.9,-252.01"/>
<polygon fill="black" stroke="black" points="84.8,-248.63 74.23,-249.37 82.95,-255.38 84.8,-248.63"/>
</g>
<!-- src/Darwin -->
<g id="node5" class="node">
<title>src/Darwin</title>
<polygon fill="lightgrey" stroke="black" points="187.5,-252 92.5,-252 92.5,-216 187.5,-216 187.5,-252"/>
<text text-anchor="middle" x="140" y="-230.3" font-family="Times,serif" font-size="14.00">src/Darwin</text>
</g>
<!-- MulleObjCOSFoundation&#45;&gt;src/Darwin -->
<g id="edge3" class="edge">
<title>MulleObjCOSFoundation&#45;&gt;src/Darwin</title>
<path fill="none" stroke="black" d="M315.32,-287.97C283.18,-278.3 241.96,-265.89 197.49,-252.45"/>
<polygon fill="black" stroke="black" points="198.24,-249.02 187.66,-249.48 196.22,-255.72 198.24,-249.02"/>
</g>
<!-- src/FreeBSD -->
<g id="node6" class="node">
<title>src/FreeBSD</title>
<polygon fill="lightgrey" stroke="black" points="312.5,-252 205.5,-252 205.5,-216 312.5,-216 312.5,-252"/>
<text text-anchor="middle" x="259" y="-230.3" font-family="Times,serif" font-size="14.00">src/FreeBSD</text>
</g>
<!-- MulleObjCOSFoundation&#45;&gt;src/FreeBSD -->
<g id="edge4" class="edge">
<title>MulleObjCOSFoundation&#45;&gt;src/FreeBSD</title>
<path fill="none" stroke="black" d="M344.36,-287.88C329.58,-278.72 311.21,-267.34 295.3,-257.48"/>
<polygon fill="black" stroke="black" points="297.09,-254.48 286.75,-252.19 293.41,-260.43 297.09,-254.48"/>
</g>
<!-- src/Linux -->
<g id="node7" class="node">
<title>src/Linux</title>
<polygon fill="lightgrey" stroke="black" points="413.5,-252 330.5,-252 330.5,-216 413.5,-216 413.5,-252"/>
<text text-anchor="middle" x="372" y="-230.3" font-family="Times,serif" font-size="14.00">src/Linux</text>
</g>
<!-- MulleObjCOSFoundation&#45;&gt;src/Linux -->
<g id="edge5" class="edge">
<title>MulleObjCOSFoundation&#45;&gt;src/Linux</title>
<path fill="none" stroke="black" d="M372,-287.7C372,-279.98 372,-270.71 372,-262.11"/>
<polygon fill="black" stroke="black" points="375.5,-262.1 372,-252.1 368.5,-262.1 375.5,-262.1"/>
</g>
<!-- src/OSBase -->
<g id="node8" class="node">
<title>src/OSBase</title>
<polygon fill="lightgrey" stroke="black" points="530,-252 432,-252 432,-216 530,-216 530,-252"/>
<text text-anchor="middle" x="481" y="-230.3" font-family="Times,serif" font-size="14.00">src/OSBase</text>
</g>
<!-- MulleObjCOSFoundation&#45;&gt;src/OSBase -->
<g id="edge6" class="edge">
<title>MulleObjCOSFoundation&#45;&gt;src/OSBase</title>
<path fill="none" stroke="black" d="M398.66,-287.88C412.78,-278.81 430.31,-267.55 445.56,-257.76"/>
<polygon fill="black" stroke="black" points="447.71,-260.54 454.23,-252.19 443.93,-254.65 447.71,-260.54"/>
</g>
<!-- src/Posix -->
<g id="node9" class="node">
<title>src/Posix</title>
<polygon fill="lightgrey" stroke="black" points="628,-252 548,-252 548,-216 628,-216 628,-252"/>
<text text-anchor="middle" x="588" y="-230.3" font-family="Times,serif" font-size="14.00">src/Posix</text>
</g>
<!-- MulleObjCOSFoundation&#45;&gt;src/Posix -->
<g id="edge7" class="edge">
<title>MulleObjCOSFoundation&#45;&gt;src/Posix</title>
<path fill="none" stroke="black" d="M427.03,-287.94C457.35,-278.45 495.89,-266.23 538.24,-252.21"/>
<polygon fill="black" stroke="black" points="539.53,-255.47 547.92,-249 537.32,-248.83 539.53,-255.47"/>
</g>
<!-- src/Windows -->
<g id="node10" class="node">
<title>src/Windows</title>
<polygon fill="lightgrey" stroke="black" points="753.5,-252 646.5,-252 646.5,-216 753.5,-216 753.5,-252"/>
<text text-anchor="middle" x="700" y="-230.3" font-family="Times,serif" font-size="14.00">src/Windows</text>
</g>
<!-- MulleObjCOSFoundation&#45;&gt;src/Windows -->
<g id="edge8" class="edge">
<title>MulleObjCOSFoundation&#45;&gt;src/Windows</title>
<path fill="none" stroke="black" d="M464.92,-287.98C513.31,-278.74 573.64,-266.65 636.36,-252.07"/>
<polygon fill="black" stroke="black" points="637.51,-255.4 646.44,-249.71 635.91,-248.58 637.51,-255.4"/>
</g>
<!-- src/OSBase&#45;&gt;MulleObjCLockFoundation -->
<g id="edge16" class="edge">
<title>src/OSBase&#45;&gt;MulleObjCLockFoundation</title>
<path fill="none" stroke="black" d="M431.83,-218.47C428.51,-217.6 425.21,-216.77 422,-216 367.76,-203.03 306.95,-191.1 256.15,-181.87"/>
<polygon fill="black" stroke="black" points="256.59,-178.39 246.13,-180.06 255.35,-185.28 256.59,-178.39"/>
</g>
<!-- MulleObjCStandardFoundation -->
<g id="node11" class="node">
<title>MulleObjCStandardFoundation</title>
<polygon fill="lightgrey" stroke="black" points="505.5,-180 266.5,-180 266.5,-144 505.5,-144 505.5,-180"/>
<text text-anchor="middle" x="386" y="-158.3" font-family="Times,serif" font-size="14.00">MulleObjCStandardFoundation</text>
</g>
<!-- src/OSBase&#45;&gt;MulleObjCStandardFoundation -->
<g id="edge18" class="edge">
<title>src/OSBase&#45;&gt;MulleObjCStandardFoundation</title>
<path fill="none" stroke="black" d="M457.52,-215.7C445.44,-206.8 430.55,-195.82 417.48,-186.2"/>
<polygon fill="black" stroke="black" points="419.34,-183.22 409.21,-180.1 415.19,-188.85 419.34,-183.22"/>
</g>
<!-- mulle&#45;mmap -->
<g id="node18" class="node">
<title>mulle&#45;mmap</title>
<polygon fill="lightgrey" stroke="black" points="628.5,-180 523.5,-180 523.5,-144 628.5,-144 628.5,-180"/>
<text text-anchor="middle" x="576" y="-158.3" font-family="Times,serif" font-size="14.00">mulle&#45;mmap</text>
</g>
<!-- src/OSBase&#45;&gt;mulle&#45;mmap -->
<g id="edge15" class="edge">
<title>src/OSBase&#45;&gt;mulle&#45;mmap</title>
<path fill="none" stroke="black" d="M504.48,-215.7C516.56,-206.8 531.45,-195.82 544.52,-186.2"/>
<polygon fill="black" stroke="black" points="546.81,-188.85 552.79,-180.1 542.66,-183.22 546.81,-188.85"/>
</g>
<!-- MulleObjCPlistFoundation -->
<g id="node19" class="node">
<title>MulleObjCPlistFoundation</title>
<polygon fill="lightgrey" stroke="black" points="851.5,-180 646.5,-180 646.5,-144 851.5,-144 851.5,-180"/>
<text text-anchor="middle" x="749" y="-158.3" font-family="Times,serif" font-size="14.00">MulleObjCPlistFoundation</text>
</g>
<!-- src/OSBase&#45;&gt;MulleObjCPlistFoundation -->
<g id="edge17" class="edge">
<title>src/OSBase&#45;&gt;MulleObjCPlistFoundation</title>
<path fill="none" stroke="black" d="M530.01,-218.49C533.05,-217.64 536.06,-216.8 539,-216 581.81,-204.33 629.77,-192.16 669.04,-182.42"/>
<polygon fill="black" stroke="black" points="669.96,-185.8 678.83,-180.01 668.28,-179.01 669.96,-185.8"/>
</g>
<!-- MulleObjCContainerFoundation -->
<g id="node12" class="node">
<title>MulleObjCContainerFoundation</title>
<polygon fill="lightgrey" stroke="black" points="479.5,-108 236.5,-108 236.5,-72 479.5,-72 479.5,-108"/>
<text text-anchor="middle" x="358" y="-86.3" font-family="Times,serif" font-size="14.00">MulleObjCContainerFoundation</text>
</g>
<!-- MulleObjCStandardFoundation&#45;&gt;MulleObjCContainerFoundation -->
<g id="edge9" class="edge">
<title>MulleObjCStandardFoundation&#45;&gt;MulleObjCContainerFoundation</title>
<path fill="none" stroke="black" d="M379.08,-143.7C375.93,-135.81 372.12,-126.3 368.62,-117.55"/>
<polygon fill="black" stroke="black" points="371.81,-116.09 364.84,-108.1 365.31,-118.69 371.81,-116.09"/>
</g>
<!-- MulleObjCValueFoundation -->
<g id="node13" class="node">
<title>MulleObjCValueFoundation</title>
<polygon fill="lightgrey" stroke="black" points="710,-108 498,-108 498,-72 710,-72 710,-108"/>
<text text-anchor="middle" x="604" y="-86.3" font-family="Times,serif" font-size="14.00">MulleObjCValueFoundation</text>
</g>
<!-- MulleObjCStandardFoundation&#45;&gt;MulleObjCValueFoundation -->
<g id="edge10" class="edge">
<title>MulleObjCStandardFoundation&#45;&gt;MulleObjCValueFoundation</title>
<path fill="none" stroke="black" d="M439.05,-143.97C469.77,-134.1 508.64,-121.62 540.92,-111.25"/>
<polygon fill="black" stroke="black" points="542.26,-114.5 550.71,-108.11 540.12,-107.84 542.26,-114.5"/>
</g>
<!-- mulle&#45;buffer -->
<g id="node14" class="node">
<title>mulle&#45;buffer</title>
<polygon fill="lightgrey" stroke="black" points="481,-36 377,-36 377,0 481,0 481,-36"/>
<text text-anchor="middle" x="429" y="-14.3" font-family="Times,serif" font-size="14.00">mulle&#45;buffer</text>
</g>
<!-- MulleObjCValueFoundation&#45;&gt;mulle&#45;buffer -->
<g id="edge11" class="edge">
<title>MulleObjCValueFoundation&#45;&gt;mulle&#45;buffer</title>
<path fill="none" stroke="black" d="M561.19,-71.88C537.05,-62.22 506.72,-50.09 481.19,-39.88"/>
<polygon fill="black" stroke="black" points="482.26,-36.53 471.67,-36.07 479.66,-43.03 482.26,-36.53"/>
</g>
<!-- MulleObjC -->
<g id="node15" class="node">
<title>MulleObjC</title>
<polygon fill="lightgrey" stroke="black" points="591,-36 499,-36 499,0 591,0 591,-36"/>
<text text-anchor="middle" x="545" y="-14.3" font-family="Times,serif" font-size="14.00">MulleObjC</text>
</g>
<!-- MulleObjCValueFoundation&#45;&gt;MulleObjC -->
<g id="edge12" class="edge">
<title>MulleObjCValueFoundation&#45;&gt;MulleObjC</title>
<path fill="none" stroke="black" d="M589.42,-71.7C582.34,-63.3 573.72,-53.07 565.95,-43.86"/>
<polygon fill="black" stroke="black" points="568.54,-41.49 559.42,-36.1 563.19,-46.01 568.54,-41.49"/>
</g>
<!-- mulle&#45;sprintf -->
<g id="node16" class="node">
<title>mulle&#45;sprintf</title>
<polygon fill="lightgrey" stroke="black" points="718.5,-36 609.5,-36 609.5,0 718.5,0 718.5,-36"/>
<text text-anchor="middle" x="664" y="-14.3" font-family="Times,serif" font-size="14.00">mulle&#45;sprintf</text>
</g>
<!-- MulleObjCValueFoundation&#45;&gt;mulle&#45;sprintf -->
<g id="edge13" class="edge">
<title>MulleObjCValueFoundation&#45;&gt;mulle&#45;sprintf</title>
<path fill="none" stroke="black" d="M618.83,-71.7C626.02,-63.3 634.8,-53.07 642.69,-43.86"/>
<polygon fill="black" stroke="black" points="645.49,-45.97 649.34,-36.1 640.17,-41.42 645.49,-45.97"/>
</g>
<!-- mulle&#45;utf -->
<g id="node17" class="node">
<title>mulle&#45;utf</title>
<polygon fill="lightgrey" stroke="black" points="817.5,-36 736.5,-36 736.5,0 817.5,0 817.5,-36"/>
<text text-anchor="middle" x="777" y="-14.3" font-family="Times,serif" font-size="14.00">mulle&#45;utf</text>
</g>
<!-- MulleObjCValueFoundation&#45;&gt;mulle&#45;utf -->
<g id="edge14" class="edge">
<title>MulleObjCValueFoundation&#45;&gt;mulle&#45;utf</title>
<path fill="none" stroke="black" d="M646.32,-71.88C670.62,-62.04 701.29,-49.63 726.8,-39.31"/>
<polygon fill="black" stroke="black" points="728.35,-42.46 736.31,-35.47 725.72,-35.97 728.35,-42.46"/>
</g>
</g>
</svg>
