<?xml version="1.0" encoding="UTF-8" standalone="no"?>
<!DOCTYPE svg PUBLIC "-//W3C//DTD SVG 1.1//EN"
 "http://www.w3.org/Graphics/SVG/1.1/DTD/svg11.dtd">
<!-- Generated by graphviz version 2.43.0 (0)
 -->
<!-- Title: sourcetree Pages: 1 -->
<svg width="1178pt" height="332pt"
 viewBox="0.00 0.00 1178.00 332.00" xmlns="http://www.w3.org/2000/svg" xmlns:xlink="http://www.w3.org/1999/xlink">
<g id="graph0" class="graph" transform="scale(1 1) rotate(0) translate(4 328)">
<title>sourcetree</title>
<polygon fill="white" stroke="transparent" points="-4,4 -4,-328 1174,-328 1174,4 -4,4"/>
<!-- MulleObjCOSFoundation -->
<g id="node1" class="node">
<title>MulleObjCOSFoundation</title>
<polygon fill="yellow" stroke="black" points="744.5,-324 550.5,-324 550.5,-288 744.5,-288 744.5,-324"/>
<text text-anchor="middle" x="647.5" y="-302.3" font-family="Times,serif" font-size="14.00">MulleObjCOSFoundation</text>
</g>
<!-- src/BSD -->
<g id="node2" class="node">
<title>src/BSD</title>
<polygon fill="lightgrey" stroke="black" points="349.5,-252 275.5,-252 275.5,-216 349.5,-216 349.5,-252"/>
<text text-anchor="middle" x="312.5" y="-230.3" font-family="Times,serif" font-size="14.00">src/BSD</text>
</g>
<!-- MulleObjCOSFoundation&#45;&gt;src/BSD -->
<g id="edge1" class="edge">
<title>MulleObjCOSFoundation&#45;&gt;src/BSD</title>
<path fill="none" stroke="black" d="M550.28,-291.21C494.03,-282.21 422.19,-268.98 359.5,-252 359.4,-251.97 359.3,-251.94 359.19,-251.92"/>
<polygon fill="black" stroke="black" points="360.1,-248.54 349.52,-249.03 358.1,-255.24 360.1,-248.54"/>
</g>
<!-- src/Darwin -->
<g id="node3" class="node">
<title>src/Darwin</title>
<polygon fill="lightgrey" stroke="black" points="463,-252 368,-252 368,-216 463,-216 463,-252"/>
<text text-anchor="middle" x="415.5" y="-230.3" font-family="Times,serif" font-size="14.00">src/Darwin</text>
</g>
<!-- MulleObjCOSFoundation&#45;&gt;src/Darwin -->
<g id="edge2" class="edge">
<title>MulleObjCOSFoundation&#45;&gt;src/Darwin</title>
<path fill="none" stroke="black" d="M591.04,-287.97C555.24,-277.16 509.06,-263.23 473.06,-252.37"/>
<polygon fill="black" stroke="black" points="473.77,-248.93 463.19,-249.39 471.75,-255.63 473.77,-248.93"/>
</g>
<!-- src/FreeBSD -->
<g id="node4" class="node">
<title>src/FreeBSD</title>
<polygon fill="lightgrey" stroke="black" points="588,-252 481,-252 481,-216 588,-216 588,-252"/>
<text text-anchor="middle" x="534.5" y="-230.3" font-family="Times,serif" font-size="14.00">src/FreeBSD</text>
</g>
<!-- MulleObjCOSFoundation&#45;&gt;src/FreeBSD -->
<g id="edge3" class="edge">
<title>MulleObjCOSFoundation&#45;&gt;src/FreeBSD</title>
<path fill="none" stroke="black" d="M619.86,-287.88C605.08,-278.72 586.71,-267.34 570.8,-257.48"/>
<polygon fill="black" stroke="black" points="572.59,-254.48 562.25,-252.19 568.91,-260.43 572.59,-254.48"/>
</g>
<!-- src/Linux -->
<g id="node5" class="node">
<title>src/Linux</title>
<polygon fill="lightgrey" stroke="black" points="689,-252 606,-252 606,-216 689,-216 689,-252"/>
<text text-anchor="middle" x="647.5" y="-230.3" font-family="Times,serif" font-size="14.00">src/Linux</text>
</g>
<!-- MulleObjCOSFoundation&#45;&gt;src/Linux -->
<g id="edge4" class="edge">
<title>MulleObjCOSFoundation&#45;&gt;src/Linux</title>
<path fill="none" stroke="black" d="M647.5,-287.7C647.5,-279.98 647.5,-270.71 647.5,-262.11"/>
<polygon fill="black" stroke="black" points="651,-262.1 647.5,-252.1 644,-262.1 651,-262.1"/>
</g>
<!-- src/OSBase -->
<g id="node6" class="node">
<title>src/OSBase</title>
<polygon fill="lightgrey" stroke="black" points="805.5,-252 707.5,-252 707.5,-216 805.5,-216 805.5,-252"/>
<text text-anchor="middle" x="756.5" y="-230.3" font-family="Times,serif" font-size="14.00">src/OSBase</text>
</g>
<!-- MulleObjCOSFoundation&#45;&gt;src/OSBase -->
<g id="edge5" class="edge">
<title>MulleObjCOSFoundation&#45;&gt;src/OSBase</title>
<path fill="none" stroke="black" d="M674.16,-287.88C688.28,-278.81 705.81,-267.55 721.06,-257.76"/>
<polygon fill="black" stroke="black" points="723.21,-260.54 729.73,-252.19 719.43,-254.65 723.21,-260.54"/>
</g>
<!-- src/Posix -->
<g id="node7" class="node">
<title>src/Posix</title>
<polygon fill="lightgrey" stroke="black" points="903.5,-252 823.5,-252 823.5,-216 903.5,-216 903.5,-252"/>
<text text-anchor="middle" x="863.5" y="-230.3" font-family="Times,serif" font-size="14.00">src/Posix</text>
</g>
<!-- MulleObjCOSFoundation&#45;&gt;src/Posix -->
<g id="edge6" class="edge">
<title>MulleObjCOSFoundation&#45;&gt;src/Posix</title>
<path fill="none" stroke="black" d="M702.53,-287.94C732.85,-278.45 771.39,-266.23 813.74,-252.21"/>
<polygon fill="black" stroke="black" points="815.03,-255.47 823.42,-249 812.82,-248.83 815.03,-255.47"/>
</g>
<!-- src/Windows -->
<g id="node8" class="node">
<title>src/Windows</title>
<polygon fill="lightgrey" stroke="black" points="1029,-252 922,-252 922,-216 1029,-216 1029,-252"/>
<text text-anchor="middle" x="975.5" y="-230.3" font-family="Times,serif" font-size="14.00">src/Windows</text>
</g>
<!-- MulleObjCOSFoundation&#45;&gt;src/Windows -->
<g id="edge7" class="edge">
<title>MulleObjCOSFoundation&#45;&gt;src/Windows</title>
<path fill="none" stroke="black" d="M740.42,-287.98C788.81,-278.74 849.14,-266.65 911.86,-252.07"/>
<polygon fill="black" stroke="black" points="913.01,-255.4 921.94,-249.71 911.41,-248.58 913.01,-255.4"/>
</g>
<!-- MulleObjCStandardFoundation -->
<g id="node9" class="node">
<title>MulleObjCStandardFoundation</title>
<polygon fill="lightgrey" stroke="black" points="599,-180 360,-180 360,-144 599,-144 599,-180"/>
<text text-anchor="middle" x="479.5" y="-158.3" font-family="Times,serif" font-size="14.00">MulleObjCStandardFoundation</text>
</g>
<!-- src/OSBase&#45;&gt;MulleObjCStandardFoundation -->
<g id="edge17" class="edge">
<title>src/OSBase&#45;&gt;MulleObjCStandardFoundation</title>
<path fill="none" stroke="black" d="M707.5,-218.46C704.46,-217.61 701.44,-216.79 698.5,-216 654.16,-204.14 604.46,-192.02 563.63,-182.37"/>
<polygon fill="black" stroke="black" points="564.26,-178.92 553.72,-180.03 562.65,-185.74 564.26,-178.92"/>
</g>
<!-- mulle&#45;mmap -->
<g id="node16" class="node">
<title>mulle&#45;mmap</title>
<polygon fill="lightgrey" stroke="black" points="722,-180 617,-180 617,-144 722,-144 722,-180"/>
<text text-anchor="middle" x="669.5" y="-158.3" font-family="Times,serif" font-size="14.00">mulle&#45;mmap</text>
</g>
<!-- src/OSBase&#45;&gt;mulle&#45;mmap -->
<g id="edge14" class="edge">
<title>src/OSBase&#45;&gt;mulle&#45;mmap</title>
<path fill="none" stroke="black" d="M734.99,-215.7C724.04,-206.88 710.55,-196.03 698.68,-186.47"/>
<polygon fill="black" stroke="black" points="700.74,-183.65 690.76,-180.1 696.36,-189.1 700.74,-183.65"/>
</g>
<!-- MulleObjCLockFoundation -->
<g id="node17" class="node">
<title>MulleObjCLockFoundation</title>
<polygon fill="lightgrey" stroke="black" points="946.5,-180 740.5,-180 740.5,-144 946.5,-144 946.5,-180"/>
<text text-anchor="middle" x="843.5" y="-158.3" font-family="Times,serif" font-size="14.00">MulleObjCLockFoundation</text>
</g>
<!-- src/OSBase&#45;&gt;MulleObjCLockFoundation -->
<g id="edge15" class="edge">
<title>src/OSBase&#45;&gt;MulleObjCLockFoundation</title>
<path fill="none" stroke="black" d="M778.01,-215.7C788.96,-206.88 802.45,-196.03 814.32,-186.47"/>
<polygon fill="black" stroke="black" points="816.64,-189.1 822.24,-180.1 812.26,-183.65 816.64,-189.1"/>
</g>
<!-- MulleObjCPlistFoundation -->
<g id="node18" class="node">
<title>MulleObjCPlistFoundation</title>
<polygon fill="lightgrey" stroke="black" points="1170,-180 965,-180 965,-144 1170,-144 1170,-180"/>
<text text-anchor="middle" x="1067.5" y="-158.3" font-family="Times,serif" font-size="14.00">MulleObjCPlistFoundation</text>
</g>
<!-- src/OSBase&#45;&gt;MulleObjCPlistFoundation -->
<g id="edge16" class="edge">
<title>src/OSBase&#45;&gt;MulleObjCPlistFoundation</title>
<path fill="none" stroke="black" d="M805.79,-218.27C808.73,-217.48 811.65,-216.71 814.5,-216 864.69,-203.41 920.99,-191.41 967.71,-182.02"/>
<polygon fill="black" stroke="black" points="968.41,-185.45 977.53,-180.06 967.04,-178.59 968.41,-185.45"/>
</g>
<!-- MulleObjCContainerFoundation -->
<g id="node10" class="node">
<title>MulleObjCContainerFoundation</title>
<polygon fill="lightgrey" stroke="black" points="243,-108 0,-108 0,-72 243,-72 243,-108"/>
<text text-anchor="middle" x="121.5" y="-86.3" font-family="Times,serif" font-size="14.00">MulleObjCContainerFoundation</text>
</g>
<!-- MulleObjCStandardFoundation&#45;&gt;MulleObjCContainerFoundation -->
<g id="edge8" class="edge">
<title>MulleObjCStandardFoundation&#45;&gt;MulleObjCContainerFoundation</title>
<path fill="none" stroke="black" d="M392.38,-143.97C339.87,-133.7 272.89,-120.6 218.67,-110"/>
<polygon fill="black" stroke="black" points="219.18,-106.53 208.7,-108.05 217.84,-113.4 219.18,-106.53"/>
</g>
<!-- MulleObjCTimeFoundation -->
<g id="node11" class="node">
<title>MulleObjCTimeFoundation</title>
<polygon fill="lightgrey" stroke="black" points="469.5,-108 261.5,-108 261.5,-72 469.5,-72 469.5,-108"/>
<text text-anchor="middle" x="365.5" y="-86.3" font-family="Times,serif" font-size="14.00">MulleObjCTimeFoundation</text>
</g>
<!-- MulleObjCStandardFoundation&#45;&gt;MulleObjCTimeFoundation -->
<g id="edge9" class="edge">
<title>MulleObjCStandardFoundation&#45;&gt;MulleObjCTimeFoundation</title>
<path fill="none" stroke="black" d="M451.61,-143.88C436.71,-134.72 418.17,-123.34 402.12,-113.48"/>
<polygon fill="black" stroke="black" points="403.85,-110.44 393.49,-108.19 400.19,-116.41 403.85,-110.44"/>
</g>
<!-- MulleObjCValueFoundation -->
<g id="node12" class="node">
<title>MulleObjCValueFoundation</title>
<polygon fill="lightgrey" stroke="black" points="699.5,-108 487.5,-108 487.5,-72 699.5,-72 699.5,-108"/>
<text text-anchor="middle" x="593.5" y="-86.3" font-family="Times,serif" font-size="14.00">MulleObjCValueFoundation</text>
</g>
<!-- MulleObjCStandardFoundation&#45;&gt;MulleObjCValueFoundation -->
<g id="edge10" class="edge">
<title>MulleObjCStandardFoundation&#45;&gt;MulleObjCValueFoundation</title>
<path fill="none" stroke="black" d="M507.39,-143.88C522.29,-134.72 540.83,-123.34 556.88,-113.48"/>
<polygon fill="black" stroke="black" points="558.81,-116.41 565.51,-108.19 555.15,-110.44 558.81,-116.41"/>
</g>
<!-- mulle&#45;unicode -->
<g id="node13" class="node">
<title>mulle&#45;unicode</title>
<polygon fill="lightgrey" stroke="black" points="833.5,-108 717.5,-108 717.5,-72 833.5,-72 833.5,-108"/>
<text text-anchor="middle" x="775.5" y="-86.3" font-family="Times,serif" font-size="14.00">mulle&#45;unicode</text>
</g>
<!-- MulleObjCStandardFoundation&#45;&gt;mulle&#45;unicode -->
<g id="edge11" class="edge">
<title>MulleObjCStandardFoundation&#45;&gt;mulle&#45;unicode</title>
<path fill="none" stroke="black" d="M554.89,-143.97C597.15,-134.33 651.06,-121.86 707.58,-108.2"/>
<polygon fill="black" stroke="black" points="708.52,-111.57 717.41,-105.82 706.87,-104.77 708.52,-111.57"/>
</g>
<!-- MulleObjC -->
<g id="node14" class="node">
<title>MulleObjC</title>
<polygon fill="lightgrey" stroke="black" points="355.5,-36 263.5,-36 263.5,0 355.5,0 355.5,-36"/>
<text text-anchor="middle" x="309.5" y="-14.3" font-family="Times,serif" font-size="14.00">MulleObjC</text>
</g>
<!-- MulleObjCTimeFoundation&#45;&gt;MulleObjC -->
<g id="edge12" class="edge">
<title>MulleObjCTimeFoundation&#45;&gt;MulleObjC</title>
<path fill="none" stroke="black" d="M351.66,-71.7C345.01,-63.39 336.92,-53.28 329.61,-44.14"/>
<polygon fill="black" stroke="black" points="332.16,-41.73 323.18,-36.1 326.7,-46.1 332.16,-41.73"/>
</g>
<!-- mulle&#45;time -->
<g id="node15" class="node">
<title>mulle&#45;time</title>
<polygon fill="lightgrey" stroke="black" points="467,-36 374,-36 374,0 467,0 467,-36"/>
<text text-anchor="middle" x="420.5" y="-14.3" font-family="Times,serif" font-size="14.00">mulle&#45;time</text>
</g>
<!-- MulleObjCTimeFoundation&#45;&gt;mulle&#45;time -->
<g id="edge13" class="edge">
<title>MulleObjCTimeFoundation&#45;&gt;mulle&#45;time</title>
<path fill="none" stroke="black" d="M379.1,-71.7C385.62,-63.39 393.57,-53.28 400.75,-44.14"/>
<polygon fill="black" stroke="black" points="403.63,-46.13 407.06,-36.1 398.13,-41.81 403.63,-46.13"/>
</g>
</g>
</svg>
