<?xml version="1.0" encoding="UTF-8" standalone="no"?>
<!DOCTYPE svg PUBLIC "-//W3C//DTD SVG 1.1//EN"
 "http://www.w3.org/Graphics/SVG/1.1/DTD/svg11.dtd">
<!-- Generated by graphviz version 2.43.0 (0)
 -->
<!-- Title: sourcetree Pages: 1 -->
<svg width="2855pt" height="260pt"
 viewBox="0.00 0.00 2855.00 260.00" xmlns="http://www.w3.org/2000/svg" xmlns:xlink="http://www.w3.org/1999/xlink">
<g id="graph0" class="graph" transform="scale(1 1) rotate(0) translate(4 256)">
<title>sourcetree</title>
<polygon fill="white" stroke="transparent" points="-4,4 -4,-256 2851,-256 2851,4 -4,4"/>
<!-- MulleObjCOSFoundation -->
<g id="node1" class="node">
<title>MulleObjCOSFoundation</title>
<polygon fill="yellow" stroke="black" points="1141,-252 947,-252 947,-216 1141,-216 1141,-252"/>
<text text-anchor="middle" x="1044" y="-230.3" font-family="Times,serif" font-size="14.00">MulleObjCOSFoundation</text>
</g>
<!-- BSD -->
<g id="node2" class="node">
<title>BSD</title>
<g id="a_node2"><a xlink:href="https://unknown.com/" xlink:title="BSD">
<polygon fill="lightgrey" stroke="black" points="812,-180 758,-180 758,-144 812,-144 812,-180"/>
<text text-anchor="middle" x="785" y="-158.3" font-family="Times,serif" font-size="14.00">BSD</text>
</a>
</g>
</g>
<!-- MulleObjCOSFoundation&#45;&gt;BSD -->
<g id="edge16" class="edge">
<title>MulleObjCOSFoundation&#45;&gt;BSD</title>
<path fill="none" stroke="black" d="M953.52,-215.97C915.06,-207.66 869.78,-196.48 821.88,-179.97"/>
<polygon fill="black" stroke="black" points="822.87,-176.61 812.27,-176.6 820.55,-183.21 822.87,-176.61"/>
</g>
<!-- Darwin -->
<g id="node3" class="node">
<title>Darwin</title>
<g id="a_node3"><a xlink:href="https://unknown.com/" xlink:title="Darwin">
<polygon fill="lightgrey" stroke="black" points="898,-180 830,-180 830,-144 898,-144 898,-180"/>
<text text-anchor="middle" x="864" y="-158.3" font-family="Times,serif" font-size="14.00">Darwin</text>
</a>
</g>
</g>
<!-- MulleObjCOSFoundation&#45;&gt;Darwin -->
<g id="edge17" class="edge">
<title>MulleObjCOSFoundation&#45;&gt;Darwin</title>
<path fill="none" stroke="black" d="M999.54,-215.9C974.92,-206.4 943.54,-194.27 907.91,-180.34"/>
<polygon fill="black" stroke="black" points="908.85,-176.95 898.26,-176.57 906.3,-183.47 908.85,-176.95"/>
</g>
<!-- FreeBSD -->
<g id="node4" class="node">
<title>FreeBSD</title>
<g id="a_node4"><a xlink:href="https://unknown.com/" xlink:title="FreeBSD">
<polygon fill="lightgrey" stroke="black" points="997.5,-180 916.5,-180 916.5,-144 997.5,-144 997.5,-180"/>
<text text-anchor="middle" x="957" y="-158.3" font-family="Times,serif" font-size="14.00">FreeBSD</text>
</a>
</g>
</g>
<!-- MulleObjCOSFoundation&#45;&gt;FreeBSD -->
<g id="edge18" class="edge">
<title>MulleObjCOSFoundation&#45;&gt;FreeBSD</title>
<path fill="none" stroke="black" d="M1022.49,-215.7C1011.54,-206.88 998.05,-196.03 986.18,-186.47"/>
<polygon fill="black" stroke="black" points="988.24,-183.65 978.26,-180.1 983.86,-189.1 988.24,-183.65"/>
</g>
<!-- Linux -->
<g id="node5" class="node">
<title>Linux</title>
<g id="a_node5"><a xlink:href="https://unknown.com/" xlink:title="Linux">
<polygon fill="lightgrey" stroke="black" points="1072,-180 1016,-180 1016,-144 1072,-144 1072,-180"/>
<text text-anchor="middle" x="1044" y="-158.3" font-family="Times,serif" font-size="14.00">Linux</text>
</a>
</g>
</g>
<!-- MulleObjCOSFoundation&#45;&gt;Linux -->
<g id="edge19" class="edge">
<title>MulleObjCOSFoundation&#45;&gt;Linux</title>
<path fill="none" stroke="black" d="M1044,-215.7C1044,-207.98 1044,-198.71 1044,-190.11"/>
<polygon fill="black" stroke="black" points="1047.5,-190.1 1044,-180.1 1040.5,-190.1 1047.5,-190.1"/>
</g>
<!-- OSBase -->
<g id="node22" class="node">
<title>OSBase</title>
<g id="a_node22"><a xlink:href="https://unknown.com/" xlink:title="OSBase">
<polygon fill="lightgrey" stroke="black" points="1162,-180 1090,-180 1090,-144 1162,-144 1162,-180"/>
<text text-anchor="middle" x="1126" y="-158.3" font-family="Times,serif" font-size="14.00">OSBase</text>
</a>
</g>
</g>
<!-- MulleObjCOSFoundation&#45;&gt;OSBase -->
<g id="edge20" class="edge">
<title>MulleObjCOSFoundation&#45;&gt;OSBase</title>
<path fill="none" stroke="black" d="M1064.27,-215.7C1074.5,-206.97 1087.06,-196.24 1098.18,-186.75"/>
<polygon fill="black" stroke="black" points="1100.63,-189.26 1105.96,-180.1 1096.09,-183.94 1100.63,-189.26"/>
</g>
<!-- Posix -->
<g id="node23" class="node">
<title>Posix</title>
<g id="a_node23"><a xlink:href="https://unknown.com/" xlink:title="Posix">
<polygon fill="lightgrey" stroke="black" points="1234,-180 1180,-180 1180,-144 1234,-144 1234,-180"/>
<text text-anchor="middle" x="1207" y="-158.3" font-family="Times,serif" font-size="14.00">Posix</text>
</a>
</g>
</g>
<!-- MulleObjCOSFoundation&#45;&gt;Posix -->
<g id="edge21" class="edge">
<title>MulleObjCOSFoundation&#45;&gt;Posix</title>
<path fill="none" stroke="black" d="M1086.25,-215.93C1108.93,-206.65 1137.52,-194.73 1170.51,-180.13"/>
<polygon fill="black" stroke="black" points="1172.22,-183.2 1179.93,-175.94 1169.37,-176.81 1172.22,-183.2"/>
</g>
<!-- Windows -->
<g id="node24" class="node">
<title>Windows</title>
<g id="a_node24"><a xlink:href="https://unknown.com/" xlink:title="Windows">
<polygon fill="lightgrey" stroke="black" points="1333.5,-180 1252.5,-180 1252.5,-144 1333.5,-144 1333.5,-180"/>
<text text-anchor="middle" x="1293" y="-158.3" font-family="Times,serif" font-size="14.00">Windows</text>
</a>
</g>
</g>
<!-- MulleObjCOSFoundation&#45;&gt;Windows -->
<g id="edge22" class="edge">
<title>MulleObjCOSFoundation&#45;&gt;Windows</title>
<path fill="none" stroke="black" d="M1112.48,-215.98C1148.6,-206.72 1193.81,-194.67 1242.61,-180.02"/>
<polygon fill="black" stroke="black" points="1243.86,-183.3 1252.41,-177.05 1241.83,-176.6 1243.86,-183.3"/>
</g>
<!-- MulleFoundationBase -->
<g id="node6" class="node">
<title>MulleFoundationBase</title>
<g id="a_node6"><a xlink:href="https://github.com/MulleFoundation/MulleFoundationBase" xlink:title="MulleFoundationBase">
<polygon fill="lightgrey" stroke="black" points="1524,-180 1352,-180 1352,-144 1524,-144 1524,-180"/>
<text text-anchor="middle" x="1438" y="-158.3" font-family="Times,serif" font-size="14.00">MulleFoundationBase</text>
</a>
</g>
</g>
<!-- MulleObjC -->
<g id="node7" class="node">
<title>MulleObjC</title>
<g id="a_node7"><a xlink:href="https://github.com/mulle-objc/MulleObjC" xlink:title="MulleObjC">
<polygon fill="lightgrey" stroke="black" points="244,-108 152,-108 152,-72 244,-72 244,-108"/>
<text text-anchor="middle" x="198" y="-86.3" font-family="Times,serif" font-size="14.00">MulleObjC</text>
</a>
</g>
</g>
<!-- MulleFoundationBase&#45;&gt;MulleObjC -->
<g id="edge1" class="edge">
<title>MulleFoundationBase&#45;&gt;MulleObjC</title>
<path fill="none" stroke="black" d="M1351.86,-145.03C1348.88,-144.65 1345.92,-144.31 1343,-144 864.26,-93.53 732.81,-186.99 254.23,-107.92"/>
<polygon fill="black" stroke="black" points="254.74,-104.46 244.3,-106.26 253.59,-111.36 254.74,-104.46"/>
</g>
<!-- MulleObjCArchiverFoundation -->
<g id="node8" class="node">
<title>MulleObjCArchiverFoundation</title>
<g id="a_node8"><a xlink:href="https://github.com/MulleFoundation/MulleObjCArchiverFoundation@*" xlink:title="MulleObjCArchiverFoundation">
<polygon fill="lightgrey" stroke="black" points="495.5,-108 262.5,-108 262.5,-72 495.5,-72 495.5,-108"/>
<text text-anchor="middle" x="379" y="-86.3" font-family="Times,serif" font-size="14.00">MulleObjCArchiverFoundation</text>
</a>
</g>
</g>
<!-- MulleFoundationBase&#45;&gt;MulleObjCArchiverFoundation -->
<g id="edge2" class="edge">
<title>MulleFoundationBase&#45;&gt;MulleObjCArchiverFoundation</title>
<path fill="none" stroke="black" d="M1351.86,-145.07C1348.87,-144.68 1345.91,-144.32 1343,-144 975.37,-103.41 877.52,-140.5 505.96,-108.12"/>
<polygon fill="black" stroke="black" points="506,-104.61 495.73,-107.22 505.39,-111.59 506,-104.61"/>
</g>
<!-- MulleObjCContainerFoundation -->
<g id="node9" class="node">
<title>MulleObjCContainerFoundation</title>
<g id="a_node9"><a xlink:href="https://github.com/MulleFoundation/MulleObjCContainerFoundation@*" xlink:title="MulleObjCContainerFoundation">
<polygon fill="lightgrey" stroke="black" points="756.5,-108 513.5,-108 513.5,-72 756.5,-72 756.5,-108"/>
<text text-anchor="middle" x="635" y="-86.3" font-family="Times,serif" font-size="14.00">MulleObjCContainerFoundation</text>
</a>
</g>
</g>
<!-- MulleFoundationBase&#45;&gt;MulleObjCContainerFoundation -->
<g id="edge3" class="edge">
<title>MulleFoundationBase&#45;&gt;MulleObjCContainerFoundation</title>
<path fill="none" stroke="black" d="M1351.85,-145.14C1348.87,-144.73 1345.91,-144.35 1343,-144 1090.7,-113.67 1022.91,-132.22 766.74,-108.13"/>
<polygon fill="black" stroke="black" points="767.05,-104.64 756.76,-107.18 766.38,-111.61 767.05,-104.64"/>
</g>
<!-- MulleObjCKVCFoundation -->
<g id="node10" class="node">
<title>MulleObjCKVCFoundation</title>
<g id="a_node10"><a xlink:href="https://github.com/MulleFoundation/MulleObjCKVCFoundation@*" xlink:title="MulleObjCKVCFoundation">
<polygon fill="lightgrey" stroke="black" points="977.5,-108 774.5,-108 774.5,-72 977.5,-72 977.5,-108"/>
<text text-anchor="middle" x="876" y="-86.3" font-family="Times,serif" font-size="14.00">MulleObjCKVCFoundation</text>
</a>
</g>
</g>
<!-- MulleFoundationBase&#45;&gt;MulleObjCKVCFoundation -->
<g id="edge4" class="edge">
<title>MulleFoundationBase&#45;&gt;MulleObjCKVCFoundation</title>
<path fill="none" stroke="black" d="M1351.83,-145.28C1348.85,-144.84 1345.9,-144.41 1343,-144 1188.73,-122.43 1146.48,-127.81 987.72,-108.05"/>
<polygon fill="black" stroke="black" points="987.95,-104.55 977.59,-106.77 987.08,-111.49 987.95,-104.55"/>
</g>
<!-- MulleObjCLockFoundation -->
<g id="node11" class="node">
<title>MulleObjCLockFoundation</title>
<g id="a_node11"><a xlink:href="https://github.com/MulleFoundation/MulleObjCLockFoundation@*" xlink:title="MulleObjCLockFoundation">
<polygon fill="lightgrey" stroke="black" points="1202,-108 996,-108 996,-72 1202,-72 1202,-108"/>
<text text-anchor="middle" x="1099" y="-86.3" font-family="Times,serif" font-size="14.00">MulleObjCLockFoundation</text>
</a>
</g>
</g>
<!-- MulleFoundationBase&#45;&gt;MulleObjCLockFoundation -->
<g id="edge5" class="edge">
<title>MulleFoundationBase&#45;&gt;MulleObjCLockFoundation</title>
<path fill="none" stroke="black" d="M1355.5,-143.97C1305.99,-133.74 1242.88,-120.71 1191.65,-110.13"/>
<polygon fill="black" stroke="black" points="1192.07,-106.64 1181.57,-108.05 1190.66,-113.5 1192.07,-106.64"/>
</g>
<!-- MulleObjCMathFoundation -->
<g id="node12" class="node">
<title>MulleObjCMathFoundation</title>
<g id="a_node12"><a xlink:href="https://github.com/MulleFoundation/MulleObjCMathFoundation@*" xlink:title="MulleObjCMathFoundation">
<polygon fill="lightgrey" stroke="black" points="1430,-108 1220,-108 1220,-72 1430,-72 1430,-108"/>
<text text-anchor="middle" x="1325" y="-86.3" font-family="Times,serif" font-size="14.00">MulleObjCMathFoundation</text>
</a>
</g>
</g>
<!-- MulleFoundationBase&#45;&gt;MulleObjCMathFoundation -->
<g id="edge6" class="edge">
<title>MulleFoundationBase&#45;&gt;MulleObjCMathFoundation</title>
<path fill="none" stroke="black" d="M1410.36,-143.88C1395.58,-134.72 1377.21,-123.34 1361.3,-113.48"/>
<polygon fill="black" stroke="black" points="1363.09,-110.48 1352.75,-108.19 1359.41,-116.43 1363.09,-110.48"/>
</g>
<!-- MulleObjCPlistFoundation -->
<g id="node13" class="node">
<title>MulleObjCPlistFoundation</title>
<g id="a_node13"><a xlink:href="https://github.com/MulleFoundation/MulleObjCPlistFoundation@*" xlink:title="MulleObjCPlistFoundation">
<polygon fill="lightgrey" stroke="black" points="1653.5,-108 1448.5,-108 1448.5,-72 1653.5,-72 1653.5,-108"/>
<text text-anchor="middle" x="1551" y="-86.3" font-family="Times,serif" font-size="14.00">MulleObjCPlistFoundation</text>
</a>
</g>
</g>
<!-- MulleFoundationBase&#45;&gt;MulleObjCPlistFoundation -->
<g id="edge7" class="edge">
<title>MulleFoundationBase&#45;&gt;MulleObjCPlistFoundation</title>
<path fill="none" stroke="black" d="M1465.64,-143.88C1480.42,-134.72 1498.79,-123.34 1514.7,-113.48"/>
<polygon fill="black" stroke="black" points="1516.59,-116.43 1523.25,-108.19 1512.91,-110.48 1516.59,-116.43"/>
</g>
<!-- MulleObjCStandardFoundation -->
<g id="node14" class="node">
<title>MulleObjCStandardFoundation</title>
<g id="a_node14"><a xlink:href="https://github.com/MulleFoundation/MulleObjCStandardFoundation@*" xlink:title="MulleObjCStandardFoundation">
<polygon fill="lightgrey" stroke="black" points="1910.5,-108 1671.5,-108 1671.5,-72 1910.5,-72 1910.5,-108"/>
<text text-anchor="middle" x="1791" y="-86.3" font-family="Times,serif" font-size="14.00">MulleObjCStandardFoundation</text>
</a>
</g>
</g>
<!-- MulleFoundationBase&#45;&gt;MulleObjCStandardFoundation -->
<g id="edge8" class="edge">
<title>MulleFoundationBase&#45;&gt;MulleObjCStandardFoundation</title>
<path fill="none" stroke="black" d="M1523.9,-143.97C1575.68,-133.7 1641.73,-120.6 1695.19,-110"/>
<polygon fill="black" stroke="black" points="1695.89,-113.43 1705.02,-108.05 1694.53,-106.56 1695.89,-113.43"/>
</g>
<!-- MulleObjCTimeFoundation -->
<g id="node15" class="node">
<title>MulleObjCTimeFoundation</title>
<g id="a_node15"><a xlink:href="https://github.com/MulleFoundation/MulleObjCTimeFoundation@*" xlink:title="MulleObjCTimeFoundation">
<polygon fill="lightgrey" stroke="black" points="2137,-108 1929,-108 1929,-72 2137,-72 2137,-108"/>
<text text-anchor="middle" x="2033" y="-86.3" font-family="Times,serif" font-size="14.00">MulleObjCTimeFoundation</text>
</a>
</g>
</g>
<!-- MulleFoundationBase&#45;&gt;MulleObjCTimeFoundation -->
<g id="edge9" class="edge">
<title>MulleFoundationBase&#45;&gt;MulleObjCTimeFoundation</title>
<path fill="none" stroke="black" d="M1524.32,-152.55C1618.7,-143.08 1774.64,-126.74 1919.03,-108.1"/>
<polygon fill="black" stroke="black" points="1919.5,-111.57 1928.96,-106.81 1918.6,-104.63 1919.5,-111.57"/>
</g>
<!-- MulleObjCUnicodeFoundation -->
<g id="node16" class="node">
<title>MulleObjCUnicodeFoundation</title>
<g id="a_node16"><a xlink:href="https://github.com/MulleFoundation/MulleObjCUnicodeFoundation@*" xlink:title="MulleObjCUnicodeFoundation">
<polygon fill="lightgrey" stroke="black" points="2386.5,-108 2155.5,-108 2155.5,-72 2386.5,-72 2386.5,-108"/>
<text text-anchor="middle" x="2271" y="-86.3" font-family="Times,serif" font-size="14.00">MulleObjCUnicodeFoundation</text>
</a>
</g>
</g>
<!-- MulleFoundationBase&#45;&gt;MulleObjCUnicodeFoundation -->
<g id="edge10" class="edge">
<title>MulleFoundationBase&#45;&gt;MulleObjCUnicodeFoundation</title>
<path fill="none" stroke="black" d="M1524.25,-156.23C1655.77,-148.58 1914.56,-132.06 2145,-108.07"/>
<polygon fill="black" stroke="black" points="2145.67,-111.52 2155.26,-106.99 2144.94,-104.55 2145.67,-111.52"/>
</g>
<!-- MulleObjCUUIDFoundation -->
<g id="node17" class="node">
<title>MulleObjCUUIDFoundation</title>
<g id="a_node17"><a xlink:href="https://github.com/MulleFoundation/MulleObjCUUIDFoundation@*" xlink:title="MulleObjCUUIDFoundation">
<polygon fill="lightgrey" stroke="black" points="2617.5,-108 2404.5,-108 2404.5,-72 2617.5,-72 2617.5,-108"/>
<text text-anchor="middle" x="2511" y="-86.3" font-family="Times,serif" font-size="14.00">MulleObjCUUIDFoundation</text>
</a>
</g>
</g>
<!-- MulleFoundationBase&#45;&gt;MulleObjCUUIDFoundation -->
<g id="edge11" class="edge">
<title>MulleFoundationBase&#45;&gt;MulleObjCUUIDFoundation</title>
<path fill="none" stroke="black" d="M1524.08,-158.88C1690.37,-154.2 2067.49,-140.78 2394.09,-108.14"/>
<polygon fill="black" stroke="black" points="2394.62,-111.61 2404.22,-107.12 2393.92,-104.64 2394.62,-111.61"/>
</g>
<!-- MulleObjCValueFoundation -->
<g id="node18" class="node">
<title>MulleObjCValueFoundation</title>
<g id="a_node18"><a xlink:href="https://github.com/MulleFoundation/MulleObjCValueFoundation@*" xlink:title="MulleObjCValueFoundation">
<polygon fill="lightgrey" stroke="black" points="2847,-108 2635,-108 2635,-72 2847,-72 2847,-108"/>
<text text-anchor="middle" x="2741" y="-86.3" font-family="Times,serif" font-size="14.00">MulleObjCValueFoundation</text>
</a>
</g>
</g>
<!-- MulleFoundationBase&#45;&gt;MulleObjCValueFoundation -->
<g id="edge12" class="edge">
<title>MulleFoundationBase&#45;&gt;MulleObjCValueFoundation</title>
<path fill="none" stroke="black" d="M1524.01,-160.21C1718.51,-157.78 2207.19,-147.94 2624.69,-108.17"/>
<polygon fill="black" stroke="black" points="2625.23,-111.64 2634.85,-107.2 2624.56,-104.67 2625.23,-111.64"/>
</g>
<!-- mulle&#45;objc&#45;cc -->
<g id="node19" class="node">
<title>mulle&#45;objc&#45;cc</title>
<g id="a_node19"><a xlink:href="https://github.com/mulle-cc/mulle-objc-cc" xlink:title="mulle&#45;objc&#45;cc">
<polygon fill="lightgrey" stroke="black" points="110,-36 0,-36 0,0 110,0 110,-36"/>
<text text-anchor="middle" x="55" y="-14.3" font-family="Times,serif" font-size="14.00">mulle&#45;objc&#45;cc</text>
</a>
</g>
</g>
<!-- MulleObjC&#45;&gt;mulle&#45;objc&#45;cc -->
<g id="edge13" class="edge">
<title>MulleObjC&#45;&gt;mulle&#45;objc&#45;cc</title>
<path fill="none" stroke="black" d="M163.02,-71.88C143.8,-62.47 119.77,-50.71 99.26,-40.67"/>
<polygon fill="black" stroke="black" points="100.64,-37.44 90.12,-36.19 97.56,-43.73 100.64,-37.44"/>
</g>
<!-- mulle&#45;objc&#45;debug -->
<g id="node20" class="node">
<title>mulle&#45;objc&#45;debug</title>
<g id="a_node20"><a xlink:href="https://github.com/mulle-objc/mulle-objc-debug" xlink:title="mulle&#45;objc&#45;debug">
<polygon fill="lightgrey" stroke="black" points="267.5,-36 128.5,-36 128.5,0 267.5,0 267.5,-36"/>
<text text-anchor="middle" x="198" y="-14.3" font-family="Times,serif" font-size="14.00">mulle&#45;objc&#45;debug</text>
</a>
</g>
</g>
<!-- MulleObjC&#45;&gt;mulle&#45;objc&#45;debug -->
<g id="edge14" class="edge">
<title>MulleObjC&#45;&gt;mulle&#45;objc&#45;debug</title>
<path fill="none" stroke="black" d="M198,-71.7C198,-63.98 198,-54.71 198,-46.11"/>
<polygon fill="black" stroke="black" points="201.5,-46.1 198,-36.1 194.5,-46.1 201.5,-46.1"/>
</g>
<!-- mulle&#45;objc&#45;runtime -->
<g id="node21" class="node">
<title>mulle&#45;objc&#45;runtime</title>
<g id="a_node21"><a xlink:href="https://github.com/mulle-objc/mulle-objc-runtime" xlink:title="mulle&#45;objc&#45;runtime">
<polygon fill="lightgrey" stroke="black" points="438,-36 286,-36 286,0 438,0 438,-36"/>
<text text-anchor="middle" x="362" y="-14.3" font-family="Times,serif" font-size="14.00">mulle&#45;objc&#45;runtime</text>
</a>
</g>
</g>
<!-- MulleObjC&#45;&gt;mulle&#45;objc&#45;runtime -->
<g id="edge15" class="edge">
<title>MulleObjC&#45;&gt;mulle&#45;objc&#45;runtime</title>
<path fill="none" stroke="black" d="M238.12,-71.88C260.64,-62.26 288.92,-50.19 312.77,-40.01"/>
<polygon fill="black" stroke="black" points="314.19,-43.21 322.01,-36.07 311.44,-36.77 314.19,-43.21"/>
</g>
<!-- src/OSBase -->
<g id="node25" class="node">
<title>src/OSBase</title>
<polygon fill="lightgrey" stroke="black" points="1487,-252 1389,-252 1389,-216 1487,-216 1487,-252"/>
<text text-anchor="middle" x="1438" y="-230.3" font-family="Times,serif" font-size="14.00">src/OSBase</text>
</g>
<!-- src/OSBase&#45;&gt;MulleFoundationBase -->
<g id="edge23" class="edge">
<title>src/OSBase&#45;&gt;MulleFoundationBase</title>
<path fill="none" stroke="black" d="M1438,-215.7C1438,-207.98 1438,-198.71 1438,-190.11"/>
<polygon fill="black" stroke="black" points="1441.5,-190.1 1438,-180.1 1434.5,-190.1 1441.5,-190.1"/>
</g>
</g>
</svg>
