<?xml version="1.0" encoding="UTF-8" standalone="no"?>
<!DOCTYPE svg PUBLIC "-//W3C//DTD SVG 1.1//EN"
 "http://www.w3.org/Graphics/SVG/1.1/DTD/svg11.dtd">
<!-- Generated by graphviz version 2.43.0 (0)
 -->
<!-- Title: sourcetree Pages: 1 -->
<svg width="584pt" height="188pt"
 viewBox="0.00 0.00 583.50 188.00" xmlns="http://www.w3.org/2000/svg" xmlns:xlink="http://www.w3.org/1999/xlink">
<g id="graph0" class="graph" transform="scale(1 1) rotate(0) translate(4 184)">
<title>sourcetree</title>
<polygon fill="white" stroke="transparent" points="-4,4 -4,-184 579.5,-184 579.5,4 -4,4"/>
<!-- MulleObjCOSFoundation -->
<g id="node1" class="node">
<title>MulleObjCOSFoundation</title>
<polygon fill="yellow" stroke="black" points="383,-180 189,-180 189,-144 383,-144 383,-180"/>
<text text-anchor="middle" x="286" y="-158.3" font-family="Times,serif" font-size="14.00">MulleObjCOSFoundation</text>
</g>
<!-- BSD -->
<g id="node2" class="node">
<title>BSD</title>
<g id="a_node2"><a xlink:href="https://unknown.com/" xlink:title="BSD">
<polygon fill="lightgrey" stroke="black" points="54,-108 0,-108 0,-72 54,-72 54,-108"/>
<text text-anchor="middle" x="27" y="-86.3" font-family="Times,serif" font-size="14.00">BSD</text>
</a>
</g>
</g>
<!-- MulleObjCOSFoundation&#45;&gt;BSD -->
<g id="edge1" class="edge">
<title>MulleObjCOSFoundation&#45;&gt;BSD</title>
<path fill="none" stroke="black" d="M195.52,-143.97C157.06,-135.66 111.78,-124.48 63.88,-107.97"/>
<polygon fill="black" stroke="black" points="64.87,-104.61 54.27,-104.6 62.55,-111.21 64.87,-104.61"/>
</g>
<!-- Darwin -->
<g id="node3" class="node">
<title>Darwin</title>
<g id="a_node3"><a xlink:href="https://unknown.com/" xlink:title="Darwin">
<polygon fill="lightgrey" stroke="black" points="140,-108 72,-108 72,-72 140,-72 140,-108"/>
<text text-anchor="middle" x="106" y="-86.3" font-family="Times,serif" font-size="14.00">Darwin</text>
</a>
</g>
</g>
<!-- MulleObjCOSFoundation&#45;&gt;Darwin -->
<g id="edge2" class="edge">
<title>MulleObjCOSFoundation&#45;&gt;Darwin</title>
<path fill="none" stroke="black" d="M241.97,-143.88C213.94,-132.98 177.79,-118.92 149.81,-108.04"/>
<polygon fill="black" stroke="black" points="150.87,-104.69 140.28,-104.33 148.33,-111.22 150.87,-104.69"/>
</g>
<!-- FreeBSD -->
<g id="node4" class="node">
<title>FreeBSD</title>
<g id="a_node4"><a xlink:href="https://unknown.com/" xlink:title="FreeBSD">
<polygon fill="lightgrey" stroke="black" points="239.5,-108 158.5,-108 158.5,-72 239.5,-72 239.5,-108"/>
<text text-anchor="middle" x="199" y="-86.3" font-family="Times,serif" font-size="14.00">FreeBSD</text>
</a>
</g>
</g>
<!-- MulleObjCOSFoundation&#45;&gt;FreeBSD -->
<g id="edge3" class="edge">
<title>MulleObjCOSFoundation&#45;&gt;FreeBSD</title>
<path fill="none" stroke="black" d="M264.49,-143.7C253.54,-134.88 240.05,-124.03 228.18,-114.47"/>
<polygon fill="black" stroke="black" points="230.24,-111.65 220.26,-108.1 225.86,-117.1 230.24,-111.65"/>
</g>
<!-- Linux -->
<g id="node5" class="node">
<title>Linux</title>
<g id="a_node5"><a xlink:href="https://unknown.com/" xlink:title="Linux">
<polygon fill="lightgrey" stroke="black" points="314,-108 258,-108 258,-72 314,-72 314,-108"/>
<text text-anchor="middle" x="286" y="-86.3" font-family="Times,serif" font-size="14.00">Linux</text>
</a>
</g>
</g>
<!-- MulleObjCOSFoundation&#45;&gt;Linux -->
<g id="edge4" class="edge">
<title>MulleObjCOSFoundation&#45;&gt;Linux</title>
<path fill="none" stroke="black" d="M286,-143.7C286,-135.98 286,-126.71 286,-118.11"/>
<polygon fill="black" stroke="black" points="289.5,-118.1 286,-108.1 282.5,-118.1 289.5,-118.1"/>
</g>
<!-- OSBase -->
<g id="node7" class="node">
<title>OSBase</title>
<g id="a_node7"><a xlink:href="https://unknown.com/" xlink:title="OSBase">
<polygon fill="lightgrey" stroke="black" points="404,-108 332,-108 332,-72 404,-72 404,-108"/>
<text text-anchor="middle" x="368" y="-86.3" font-family="Times,serif" font-size="14.00">OSBase</text>
</a>
</g>
</g>
<!-- MulleObjCOSFoundation&#45;&gt;OSBase -->
<g id="edge5" class="edge">
<title>MulleObjCOSFoundation&#45;&gt;OSBase</title>
<path fill="none" stroke="black" d="M306.27,-143.7C316.5,-134.97 329.06,-124.24 340.18,-114.75"/>
<polygon fill="black" stroke="black" points="342.63,-117.26 347.96,-108.1 338.09,-111.94 342.63,-117.26"/>
</g>
<!-- Posix -->
<g id="node8" class="node">
<title>Posix</title>
<g id="a_node8"><a xlink:href="https://unknown.com/" xlink:title="Posix">
<polygon fill="lightgrey" stroke="black" points="476,-108 422,-108 422,-72 476,-72 476,-108"/>
<text text-anchor="middle" x="449" y="-86.3" font-family="Times,serif" font-size="14.00">Posix</text>
</a>
</g>
</g>
<!-- MulleObjCOSFoundation&#45;&gt;Posix -->
<g id="edge6" class="edge">
<title>MulleObjCOSFoundation&#45;&gt;Posix</title>
<path fill="none" stroke="black" d="M328.25,-143.93C350.93,-134.65 379.52,-122.73 412.51,-108.13"/>
<polygon fill="black" stroke="black" points="414.22,-111.2 421.93,-103.94 411.37,-104.81 414.22,-111.2"/>
</g>
<!-- Windows -->
<g id="node9" class="node">
<title>Windows</title>
<g id="a_node9"><a xlink:href="https://unknown.com/" xlink:title="Windows">
<polygon fill="lightgrey" stroke="black" points="575.5,-108 494.5,-108 494.5,-72 575.5,-72 575.5,-108"/>
<text text-anchor="middle" x="535" y="-86.3" font-family="Times,serif" font-size="14.00">Windows</text>
</a>
</g>
</g>
<!-- MulleObjCOSFoundation&#45;&gt;Windows -->
<g id="edge7" class="edge">
<title>MulleObjCOSFoundation&#45;&gt;Windows</title>
<path fill="none" stroke="black" d="M354.48,-143.98C390.6,-134.72 435.81,-122.67 484.61,-108.02"/>
<polygon fill="black" stroke="black" points="485.86,-111.3 494.41,-105.05 483.83,-104.6 485.86,-111.3"/>
</g>
<!-- MulleFoundationBase -->
<g id="node6" class="node">
<title>MulleFoundationBase</title>
<g id="a_node6"><a xlink:href="https://github.com/MulleFoundation/MulleFoundationBase" xlink:title="MulleFoundationBase">
<polygon fill="lightgrey" stroke="black" points="454,-36 282,-36 282,0 454,0 454,-36"/>
<text text-anchor="middle" x="368" y="-14.3" font-family="Times,serif" font-size="14.00">MulleFoundationBase</text>
</a>
</g>
</g>
<!-- OSBase&#45;&gt;MulleFoundationBase -->
<g id="edge8" class="edge">
<title>OSBase&#45;&gt;MulleFoundationBase</title>
<path fill="none" stroke="black" d="M368,-71.7C368,-63.98 368,-54.71 368,-46.11"/>
<polygon fill="black" stroke="black" points="371.5,-46.1 368,-36.1 364.5,-46.1 371.5,-46.1"/>
</g>
</g>
</svg>
