<?xml version="1.0" encoding="UTF-8" standalone="no"?>
<!DOCTYPE svg PUBLIC "-//W3C//DTD SVG 1.1//EN"
 "http://www.w3.org/Graphics/SVG/1.1/DTD/svg11.dtd">
<!-- Generated by graphviz version 2.43.0 (0)
 -->
<!-- Title: sourcetree Pages: 1 -->
<svg width="774pt" height="116pt"
 viewBox="0.00 0.00 774.00 116.00" xmlns="http://www.w3.org/2000/svg" xmlns:xlink="http://www.w3.org/1999/xlink">
<g id="graph0" class="graph" transform="scale(1 1) rotate(0) translate(4 112)">
<title>sourcetree</title>
<polygon fill="white" stroke="transparent" points="-4,4 -4,-112 770,-112 770,4 -4,4"/>
<!-- MulleObjCOSFoundation -->
<g id="node1" class="node">
<title>MulleObjCOSFoundation</title>
<polygon fill="yellow" stroke="black" points="383,-108 189,-108 189,-72 383,-72 383,-108"/>
<text text-anchor="middle" x="286" y="-86.3" font-family="Times,serif" font-size="14.00">MulleObjCOSFoundation</text>
</g>
<!-- BSD -->
<g id="node2" class="node">
<title>BSD</title>
<g id="a_node2"><a xlink:href="https://unknown.com/" xlink:title="BSD">
<polygon fill="lightgrey" stroke="black" points="54,-36 0,-36 0,0 54,0 54,-36"/>
<text text-anchor="middle" x="27" y="-14.3" font-family="Times,serif" font-size="14.00">BSD</text>
</a>
</g>
</g>
<!-- MulleObjCOSFoundation&#45;&gt;BSD -->
<g id="edge1" class="edge">
<title>MulleObjCOSFoundation&#45;&gt;BSD</title>
<path fill="none" stroke="black" d="M195.52,-71.97C157.06,-63.66 111.78,-52.48 63.88,-35.97"/>
<polygon fill="black" stroke="black" points="64.87,-32.61 54.27,-32.6 62.55,-39.21 64.87,-32.61"/>
</g>
<!-- Darwin -->
<g id="node3" class="node">
<title>Darwin</title>
<g id="a_node3"><a xlink:href="https://unknown.com/" xlink:title="Darwin">
<polygon fill="lightgrey" stroke="black" points="140,-36 72,-36 72,0 140,0 140,-36"/>
<text text-anchor="middle" x="106" y="-14.3" font-family="Times,serif" font-size="14.00">Darwin</text>
</a>
</g>
</g>
<!-- MulleObjCOSFoundation&#45;&gt;Darwin -->
<g id="edge2" class="edge">
<title>MulleObjCOSFoundation&#45;&gt;Darwin</title>
<path fill="none" stroke="black" d="M241.54,-71.9C216.92,-62.4 185.54,-50.27 149.91,-36.34"/>
<polygon fill="black" stroke="black" points="150.85,-32.95 140.26,-32.57 148.3,-39.47 150.85,-32.95"/>
</g>
<!-- FreeBSD -->
<g id="node4" class="node">
<title>FreeBSD</title>
<g id="a_node4"><a xlink:href="https://unknown.com/" xlink:title="FreeBSD">
<polygon fill="lightgrey" stroke="black" points="239.5,-36 158.5,-36 158.5,0 239.5,0 239.5,-36"/>
<text text-anchor="middle" x="199" y="-14.3" font-family="Times,serif" font-size="14.00">FreeBSD</text>
</a>
</g>
</g>
<!-- MulleObjCOSFoundation&#45;&gt;FreeBSD -->
<g id="edge3" class="edge">
<title>MulleObjCOSFoundation&#45;&gt;FreeBSD</title>
<path fill="none" stroke="black" d="M264.49,-71.7C253.54,-62.88 240.05,-52.03 228.18,-42.47"/>
<polygon fill="black" stroke="black" points="230.24,-39.65 220.26,-36.1 225.86,-45.1 230.24,-39.65"/>
</g>
<!-- Linux -->
<g id="node5" class="node">
<title>Linux</title>
<g id="a_node5"><a xlink:href="https://unknown.com/" xlink:title="Linux">
<polygon fill="lightgrey" stroke="black" points="314,-36 258,-36 258,0 314,0 314,-36"/>
<text text-anchor="middle" x="286" y="-14.3" font-family="Times,serif" font-size="14.00">Linux</text>
</a>
</g>
</g>
<!-- MulleObjCOSFoundation&#45;&gt;Linux -->
<g id="edge4" class="edge">
<title>MulleObjCOSFoundation&#45;&gt;Linux</title>
<path fill="none" stroke="black" d="M286,-71.7C286,-63.98 286,-54.71 286,-46.11"/>
<polygon fill="black" stroke="black" points="289.5,-46.1 286,-36.1 282.5,-46.1 289.5,-46.1"/>
</g>
<!-- OSBase -->
<g id="node7" class="node">
<title>OSBase</title>
<g id="a_node7"><a xlink:href="https://unknown.com/" xlink:title="OSBase">
<polygon fill="lightgrey" stroke="black" points="404,-36 332,-36 332,0 404,0 404,-36"/>
<text text-anchor="middle" x="368" y="-14.3" font-family="Times,serif" font-size="14.00">OSBase</text>
</a>
</g>
</g>
<!-- MulleObjCOSFoundation&#45;&gt;OSBase -->
<g id="edge5" class="edge">
<title>MulleObjCOSFoundation&#45;&gt;OSBase</title>
<path fill="none" stroke="black" d="M306.27,-71.7C316.5,-62.97 329.06,-52.24 340.18,-42.75"/>
<polygon fill="black" stroke="black" points="342.63,-45.26 347.96,-36.1 338.09,-39.94 342.63,-45.26"/>
</g>
<!-- Posix -->
<g id="node8" class="node">
<title>Posix</title>
<g id="a_node8"><a xlink:href="https://unknown.com/" xlink:title="Posix">
<polygon fill="lightgrey" stroke="black" points="476,-36 422,-36 422,0 476,0 476,-36"/>
<text text-anchor="middle" x="449" y="-14.3" font-family="Times,serif" font-size="14.00">Posix</text>
</a>
</g>
</g>
<!-- MulleObjCOSFoundation&#45;&gt;Posix -->
<g id="edge6" class="edge">
<title>MulleObjCOSFoundation&#45;&gt;Posix</title>
<path fill="none" stroke="black" d="M328.25,-71.93C350.93,-62.65 379.52,-50.73 412.51,-36.13"/>
<polygon fill="black" stroke="black" points="414.22,-39.2 421.93,-31.94 411.37,-32.81 414.22,-39.2"/>
</g>
<!-- Windows -->
<g id="node9" class="node">
<title>Windows</title>
<g id="a_node9"><a xlink:href="https://unknown.com/" xlink:title="Windows">
<polygon fill="lightgrey" stroke="black" points="575.5,-36 494.5,-36 494.5,0 575.5,0 575.5,-36"/>
<text text-anchor="middle" x="535" y="-14.3" font-family="Times,serif" font-size="14.00">Windows</text>
</a>
</g>
</g>
<!-- MulleObjCOSFoundation&#45;&gt;Windows -->
<g id="edge7" class="edge">
<title>MulleObjCOSFoundation&#45;&gt;Windows</title>
<path fill="none" stroke="black" d="M354.48,-71.98C390.6,-62.72 435.81,-50.67 484.61,-36.02"/>
<polygon fill="black" stroke="black" points="485.86,-39.3 494.41,-33.05 483.83,-32.6 485.86,-39.3"/>
</g>
<!-- MulleFoundationBase -->
<g id="node6" class="node">
<title>MulleFoundationBase</title>
<g id="a_node6"><a xlink:href="https://github.com/MulleFoundation/MulleFoundationBase" xlink:title="MulleFoundationBase">
<polygon fill="lightgrey" stroke="black" points="766,-36 594,-36 594,0 766,0 766,-36"/>
<text text-anchor="middle" x="680" y="-14.3" font-family="Times,serif" font-size="14.00">MulleFoundationBase</text>
</a>
</g>
</g>
<!-- src/OSBase -->
<g id="node10" class="node">
<title>src/OSBase</title>
<polygon fill="lightgrey" stroke="black" points="729,-108 631,-108 631,-72 729,-72 729,-108"/>
<text text-anchor="middle" x="680" y="-86.3" font-family="Times,serif" font-size="14.00">src/OSBase</text>
</g>
<!-- src/OSBase&#45;&gt;MulleFoundationBase -->
<g id="edge8" class="edge">
<title>src/OSBase&#45;&gt;MulleFoundationBase</title>
<path fill="none" stroke="black" d="M680,-71.7C680,-63.98 680,-54.71 680,-46.11"/>
<polygon fill="black" stroke="black" points="683.5,-46.1 680,-36.1 676.5,-46.1 683.5,-46.1"/>
</g>
</g>
</svg>
